<?xml version="1.0" encoding="UTF-8" standalone="no"?>
<!DOCTYPE svg PUBLIC "-//W3C//DTD SVG 1.1//EN" "http://www.w3.org/Graphics/SVG/1.1/DTD/svg11.dtd">
<svg width="100%" height="100%" viewBox="0 0 130 130" version="1.1" xmlns="http://www.w3.org/2000/svg" xmlns:xlink="http://www.w3.org/1999/xlink" xml:space="preserve" xmlns:serif="http://www.serif.com/" style="fill-rule:evenodd;clip-rule:evenodd;stroke-linejoin:round;stroke-miterlimit:2;">
    <g transform="matrix(1,0,0,1,-337.03,-185.2)">
        <g id="BACKGROUND">
        </g>
        <g id="OBJECT">
            <g transform="matrix(1,0,0,1,466.62,250)">
                <path d="M0,0C0,15.64 -5.54,29.99 -14.77,41.18C-18.62,45.86 -23.11,49.99 -28.12,53.42C-29.83,54.61 -31.6,55.7 -33.43,56.71C-42.72,61.87 -53.41,64.8 -64.79,64.8C-76.16,64.8 -86.86,61.87 -96.15,56.71C-97.98,55.71 -99.75,54.61 -101.46,53.43C-106.47,49.99 -110.96,45.87 -114.81,41.19C-124.05,30 -129.59,15.65 -129.59,0C-129.59,-35.79 -100.58,-64.8 -64.79,-64.8C-29.01,-64.8 0,-35.79 0,0" style="fill:rgb(215,234,241);fill-rule:nonzero;"/>
            </g>
            <g transform="matrix(1,0,0,1,451.85,296.11)">
                <path d="M0,-4.93C-3.85,-0.25 -8.34,3.88 -13.35,7.31C-15.06,8.5 -16.83,9.59 -18.66,10.6C-27.95,15.76 -38.64,18.69 -50.02,18.69C-61.39,18.69 -72.09,15.76 -81.38,10.6C-83.21,9.6 -84.98,8.5 -86.69,7.32C-91.7,3.88 -96.19,-0.24 -100.04,-4.92C-98.05,-10.09 -93.71,-14.1 -88.24,-15.61L-72.71,-19.9L-71.94,-20.11L-62.27,-22.79L-62.12,-23.62L-37.92,-23.62L-37.85,-23.21L-37.77,-22.79L-28.1,-20.11L-27.33,-19.9L-11.8,-15.61C-6.33,-14.1 -2,-10.09 0,-4.93" style="fill:rgb(12,65,91);fill-rule:nonzero;"/>
            </g>
            <g transform="matrix(1,0,0,1,423.75,285.93)">
                <path d="M0,-9.93L-0.28,-9.17C-0.36,-8.95 -0.44,-8.74 -0.53,-8.56C-3.15,-1.29 -11.56,3.51 -21.92,3.51C-32.29,3.51 -40.69,-1.29 -43.31,-8.56C-43.4,-8.75 -43.48,-8.95 -43.56,-9.17L-43.84,-9.93L-34.17,-12.61L-34.02,-13.44L-9.82,-13.44L-9.67,-12.61L0,-9.93Z" style="fill:rgb(5,23,51);fill-rule:nonzero;"/>
            </g>
            <g transform="matrix(1,0,0,1,414.08,261.44)">
                <path d="M0,11.88C-0.04,11.99 -0.1,12.08 -0.15,12.18C-1.02,15.47 -6.1,18 -12.25,18C-18.4,18 -23.48,15.47 -24.35,12.18C-24.4,12.08 -24.46,11.99 -24.5,11.88L-22.53,0.84L-21.29,-6.12L-12.25,-2.58L-3.21,-6.12L-0.08,11.46L0,11.88Z" style="fill:rgb(246,151,121);fill-rule:nonzero;"/>
            </g>
            <g transform="matrix(1,0,0,1,414,256.27)">
                <path d="M0,16.63C-2.97,17.58 -5.2,17.58 -5.2,17.58C-5.2,17.58 -17.03,17.58 -22.45,6.01L-21.21,-0.95L-12.17,2.59L-3.13,-0.95L0,16.63Z" style="fill:rgb(243,122,103);fill-rule:nonzero;"/>
            </g>
            <g transform="matrix(-0.81749,0.575943,0.575943,0.81749,382.896,241.633)">
                <path d="M-9.469,-18.55C-9.469,-18.55 11.163,-10.773 2.214,-0.419L-9.469,-3.278L-16.66,-13.484L-9.469,-18.55Z" style="fill:rgb(240,56,50);fill-rule:nonzero;"/>
            </g>
            <g transform="matrix(1,0,0,1,421.579,231.205)">
                <path d="M0,-15.132C-2.312,-19.468 -6.735,-21.867 -10.809,-23.193C-16.605,-25.08 -22.893,-25.08 -28.689,-23.193C-32.763,-21.867 -37.185,-19.468 -39.498,-15.132C-43.678,-7.128 -42.966,5.324 -42.966,5.324L-38.608,9.948L-19.749,7.555L-0.889,9.948L3.469,5.324C3.469,5.324 4.18,-7.128 0,-15.132" style="fill:rgb(5,23,51);fill-rule:nonzero;"/>
            </g>
            <g transform="matrix(1,0,0,1,426.258,241.556)">
                <path d="M0,-5.781C-0.121,-6.579 -0.417,-7.389 -1.026,-7.919C-1.575,-8.396 -2.331,-8.593 -3.058,-8.562C-3.785,-8.531 -4.489,-8.288 -5.144,-7.971C-5.144,-7.971 -5.208,-26.406 -11.743,-26.62C-16.029,-26.835 -17.935,-25.549 -24.428,-25.549C-30.92,-25.549 -32.827,-26.835 -37.112,-26.62C-43.647,-26.406 -43.711,-7.971 -43.711,-7.971C-44.366,-8.288 -45.07,-8.531 -45.797,-8.562C-46.525,-8.593 -47.28,-8.396 -47.829,-7.919C-48.439,-7.389 -48.734,-6.579 -48.855,-5.781C-49.099,-4.179 -48.716,-2.491 -47.805,-1.152C-46.893,0.187 -45.548,1.195 -43.969,1.556C-41.183,21.054 -24.428,21.054 -24.428,21.054C-24.428,21.054 -7.672,21.054 -4.887,1.556C-3.308,1.195 -1.962,0.187 -1.051,-1.152C-0.139,-2.491 0.244,-4.179 0,-5.781" style="fill:rgb(246,151,121);fill-rule:nonzero;"/>
            </g>
            <g transform="matrix(0,-1,-1,0,401.83,200.531)">
                <path d="M-2.329,-2.329C-3.615,-2.329 -4.658,-1.286 -4.658,0C-4.658,1.286 -3.615,2.329 -2.329,2.329C-1.043,2.329 0,1.286 0,0C0,-1.286 -1.043,-2.329 -2.329,-2.329" style="fill:rgb(179,42,37);fill-rule:nonzero;"/>
            </g>
            <g transform="matrix(-1,0,0,1,401.83,225.03)">
                <path d="M0,-20.95C0,-20.95 21.583,-21.182 22.343,0.232L-22.343,0.232C-21.583,-21.182 0,-20.95 0,-20.95" style="fill:rgb(179,42,37);fill-rule:nonzero;"/>
            </g>
            <g transform="matrix(-1,0,0,1,401.83,225.03)">
                <path d="M0,-20.95C0,-20.95 14.727,-21.182 15.245,0.232L-15.245,0.232C-14.727,-21.182 0,-20.95 0,-20.95" style="fill:rgb(240,56,50);fill-rule:nonzero;"/>
            </g>
            <g transform="matrix(1,0,0,1,400.891,247.876)">
                <path d="M0,-11.441L0,0L1.939,0C5.263,0 0.617,-10.126 0,-11.441" style="fill:rgb(243,122,103);fill-rule:nonzero;"/>
            </g>
            <g transform="matrix(-0.18836,-0.9821,-0.9821,0.18836,409.569,228.275)">
                <path d="M-4.657,-4.624C-2.852,-2.241 -2.098,0.647 -2.663,3.599C-2.903,4.85 -4.9,4.709 -4.657,3.44C-4.195,1.022 -4.665,-1.33 -6.164,-3.308C-6.939,-4.332 -5.436,-5.652 -4.657,-4.624" style="fill:rgb(5,23,51);fill-rule:nonzero;"/>
            </g>
            <g transform="matrix(0,-1,-1,0,410.689,234.549)">
                <path d="M-1.886,-1.886C-2.928,-1.886 -3.772,-1.042 -3.772,0C-3.772,1.042 -2.928,1.886 -1.886,1.886C-0.844,1.886 0,1.042 0,0C0,-1.042 -0.844,-1.886 -1.886,-1.886" style="fill:rgb(5,23,51);fill-rule:nonzero;"/>
            </g>
            <g transform="matrix(-0.18836,0.9821,0.9821,0.18836,394.091,228.275)">
                <path d="M4.657,-4.624C2.852,-2.241 2.098,0.647 2.663,3.599C2.903,4.85 4.9,4.709 4.657,3.44C4.195,1.022 4.665,-1.33 6.164,-3.308C6.939,-4.332 5.436,-5.652 4.657,-4.624" style="fill:rgb(5,23,51);fill-rule:nonzero;"/>
            </g>
            <g transform="matrix(0,1,1,0,392.971,234.549)">
                <path d="M1.886,-1.886C2.928,-1.886 3.772,-1.042 3.772,0C3.772,1.042 2.928,1.886 1.886,1.886C0.844,1.886 -0,1.042 -0,0C-0,-1.042 0.844,-1.886 1.886,-1.886" style="fill:rgb(5,23,51);fill-rule:nonzero;"/>
            </g>
            <g transform="matrix(1,0,0,1,395.685,256.675)">
                <path d="M0,-4.33C0.665,-1.848 3.16,0 6.146,0C9.131,0 11.626,-1.848 12.291,-4.33L0,-4.33Z" style="fill:white;fill-rule:nonzero;"/>
            </g>
            <g transform="matrix(1,0,0,1,438.5,291.29)">
                <path d="M0,12.13C-1.71,13.32 -3.48,14.41 -5.31,15.42L-1.88,-3.29L0,12.13Z" style="fill:rgb(5,23,51);fill-rule:nonzero;"/>
            </g>
            <g transform="matrix(1,0,0,1,370.47,288)">
                <path d="M0,18.71C-1.83,17.71 -3.6,16.61 -5.31,15.43L-3.43,0L0,18.71Z" style="fill:rgb(5,23,51);fill-rule:nonzero;"/>
            </g>
        </g>
    </g>
</svg>
