<?xml version="1.0" encoding="UTF-8" standalone="no"?>
<!DOCTYPE svg PUBLIC "-//W3C//DTD SVG 1.1//EN" "http://www.w3.org/Graphics/SVG/1.1/DTD/svg11.dtd">
<svg width="100%" height="100%" viewBox="0 0 130 130" version="1.1" xmlns="http://www.w3.org/2000/svg" xmlns:xlink="http://www.w3.org/1999/xlink" xml:space="preserve" xmlns:serif="http://www.serif.com/" style="fill-rule:evenodd;clip-rule:evenodd;stroke-linejoin:round;stroke-miterlimit:2;">
    <g transform="matrix(1,0,0,1,-185.2,-185.2)">
        <g id="BACKGROUND">
        </g>
        <g id="OBJECT">
            <g transform="matrix(1,0,0,1,314.8,250)">
                <path d="M0,0C0,18.71 -7.93,35.57 -20.62,47.41C-24.72,51.23 -29.32,54.53 -34.32,57.19C-43.4,62.05 -53.78,64.8 -64.8,64.8C-75.82,64.8 -86.2,62.05 -95.28,57.2C-100.28,54.53 -104.88,51.23 -108.98,47.41C-121.67,35.57 -129.6,18.71 -129.6,0C-129.6,-35.79 -100.59,-64.8 -64.8,-64.8C-29.01,-64.8 0,-35.79 0,0" style="fill:rgb(215,234,241);fill-rule:nonzero;"/>
            </g>
            <g transform="matrix(1,0,0,1,236.5,286.653)">
                <path d="M0,-80.056C0,-80.056 6,-87.653 16.25,-87.653C26.5,-87.653 36.75,-69.653 39.25,-55.903C41.75,-42.153 47,7.597 47,7.597L-17.75,7.597L-13.446,-61.512C-13.217,-65.181 -12.294,-68.794 -10.563,-72.037C-8.563,-75.782 -5.25,-79.633 0,-80.056" style="fill:rgb(228,68,36);fill-rule:nonzero;"/>
            </g>
            <g transform="matrix(1,0,0,1,294.18,272.71)">
                <path d="M0,24.7C-4.1,28.52 -8.7,31.82 -13.7,34.48C-22.78,39.34 -33.16,42.09 -44.18,42.09C-55.2,42.09 -65.58,39.34 -74.66,34.49C-79.66,31.82 -84.26,28.52 -88.36,24.7C-85.12,20.35 -80.69,16.96 -75.54,14.98L-75.01,14.78L-69.57,12.68C-67.27,11.79 -65.14,10.6 -63.22,9.13C-58.36,5.43 -54.91,0.05 -53.63,-6.09L-53.46,-6.93L-52.36,-12.25L-52.36,-12.26L-51.29,-17.39L-37.07,-17.39L-36.01,-12.25L-34.73,-6.09C-33.83,-1.77 -31.86,2.17 -29.07,5.41C-27.9,6.78 -26.58,8.03 -25.14,9.13C-23.22,10.6 -21.09,11.79 -18.79,12.68L-12.82,14.98C-12.31,15.18 -11.82,15.39 -11.32,15.61L-11.31,15.61C-6.8,17.64 -2.92,20.78 0,24.7" style="fill:rgb(246,151,121);fill-rule:nonzero;"/>
            </g>
            <g transform="matrix(1,0,0,1,265.11,256.64)">
                <path d="M0,21.48C-3.48,22.8 -6.26,22.8 -6.26,22.8C-6.26,22.8 -19.48,22.8 -24.39,9.14L-22.22,-1.32L-8,-1.32L-5.66,9.98C-4.76,14.3 -2.79,18.24 0,21.48" style="fill:rgb(243,122,103);fill-rule:nonzero;"/>
            </g>
            <g transform="matrix(1,0,0,1,257.58,258.78)">
                <path d="M0,-43.45C-4.06,-46.44 -7.58,-47.28 -7.58,-47.28C-7.58,-47.28 -11.1,-46.44 -15.16,-43.45C-20.72,-39.36 -27.29,-31.22 -27.12,-15.67C-24.34,3.83 -7.58,3.83 -7.58,3.83C-7.58,3.83 9.18,3.83 11.96,-15.67C12.13,-31.22 5.56,-39.36 0,-43.45" style="fill:rgb(246,151,121);fill-rule:nonzero;"/>
            </g>
            <g transform="matrix(1,0,0,1,280.48,289.45)">
                <path d="M0,17.74C-9.08,22.6 -19.46,25.35 -30.48,25.35C-41.5,25.35 -51.88,22.6 -60.96,17.75C-60.43,16.69 -59.96,15.65 -59.53,14.63C-58.02,11.04 -57.1,7.72 -56.56,4.8C-55.87,1.11 -55.79,-1.93 -55.87,-4.06C-53.57,-4.95 -51.44,-6.14 -49.52,-7.61L-49.52,1.65C-49.52,2.74 -49.39,3.79 -49.13,4.8C-47.73,10.41 -42.66,14.55 -36.63,14.55L-24.33,14.55C-18.3,14.55 -13.23,10.41 -11.83,4.8C-11.57,3.79 -11.44,2.74 -11.44,1.65L-11.44,-7.61C-9.52,-6.14 -7.39,-4.95 -5.09,-4.06C-5.18,-1.93 -5.09,1.11 -4.4,4.8C-3.7,8.54 -2.38,12.95 0,17.74" style="fill:rgb(102,45,142);fill-rule:nonzero;"/>
            </g>
            <g transform="matrix(1,0,0,1,249.061,244.362)">
                <path d="M0,-11.441L0,0L1.939,0C5.263,0 0.617,-10.126 0,-11.441" style="fill:rgb(243,122,103);fill-rule:nonzero;"/>
            </g>
            <g transform="matrix(-0.18836,-0.9821,-0.9821,0.18836,257.739,224.761)">
                <path d="M-4.657,-4.625C-2.852,-2.242 -2.098,0.646 -2.662,3.599C-2.902,4.849 -4.899,4.708 -4.657,3.44C-4.194,1.021 -4.665,-1.33 -6.163,-3.308C-6.939,-4.333 -5.436,-5.652 -4.657,-4.625" style="fill:rgb(228,68,36);fill-rule:nonzero;"/>
            </g>
            <g transform="matrix(1,0,0,1,260.745,233.751)">
                <path d="M0,-1.724C-0.609,-2.78 -1.886,-2.716 -1.886,-2.716C-2.928,-2.716 -3.772,-1.872 -3.772,-0.83C-3.772,0.212 -2.928,1.056 -1.886,1.056C-1.656,1.056 -1.439,1.009 -1.235,0.934L-1.234,0.939C-1.222,0.935 -1.213,0.928 -1.201,0.923C-1.14,0.9 -1.083,0.869 -1.026,0.84C0.624,0.124 0.799,-1.707 0.799,-1.707C0.47,-1.43 0,-1.724 0,-1.724" style="fill:rgb(5,23,51);fill-rule:nonzero;"/>
            </g>
            <g transform="matrix(-0.18836,0.9821,0.9821,0.18836,242.261,224.761)">
                <path d="M4.657,-4.625C2.852,-2.242 2.098,0.647 2.662,3.599C2.902,4.849 4.899,4.708 4.657,3.44C4.194,1.021 4.665,-1.33 6.163,-3.308C6.939,-4.333 5.436,-5.652 4.657,-4.625" style="fill:rgb(228,68,36);fill-rule:nonzero;"/>
            </g>
            <g transform="matrix(1,0,0,1,239.254,233.751)">
                <path d="M0,-1.724C0.609,-2.78 1.886,-2.716 1.886,-2.716C2.928,-2.716 3.772,-1.872 3.772,-0.83C3.772,0.212 2.928,1.056 1.886,1.056C1.656,1.056 1.439,1.009 1.235,0.934L1.234,0.939C1.222,0.935 1.213,0.928 1.201,0.923C1.14,0.9 1.083,0.869 1.026,0.84C-0.624,0.124 -0.799,-1.707 -0.799,-1.707C-0.47,-1.43 0,-1.724 0,-1.724" style="fill:rgb(5,23,51);fill-rule:nonzero;"/>
            </g>
            <g transform="matrix(1,0,0,1,243.855,254.779)">
                <path d="M0,-4.33C0.665,-1.848 3.16,0 6.146,0C9.131,0 11.626,-1.848 12.291,-4.33L0,-4.33Z" style="fill:white;fill-rule:nonzero;"/>
            </g>
            <g transform="matrix(1,0,0,1,280.48,301.86)">
                <path d="M0,5.33C-9.08,10.19 -19.46,12.94 -30.48,12.94C-41.5,12.94 -51.88,10.19 -60.96,5.34C-60.43,4.28 -59.96,3.24 -59.53,2.22C-48.44,-0.55 -31.42,8.32 -31.42,8.32C-16.23,-0.73 -5.98,3.76 -5.98,3.76C-7.7,-2.03 -4.4,-7.61 -4.4,-7.61C-3.7,-3.87 -2.38,0.54 0,5.33" style="fill:rgb(71,32,99);fill-rule:nonzero;"/>
            </g>
        </g>
    </g>
</svg>
