<?xml version="1.0" encoding="UTF-8" standalone="no"?>
<!DOCTYPE svg PUBLIC "-//W3C//DTD SVG 1.1//EN" "http://www.w3.org/Graphics/SVG/1.1/DTD/svg11.dtd">
<svg width="100%" height="100%" viewBox="0 0 130 130" version="1.1" xmlns="http://www.w3.org/2000/svg" xmlns:xlink="http://www.w3.org/1999/xlink" xml:space="preserve" xmlns:serif="http://www.serif.com/" style="fill-rule:evenodd;clip-rule:evenodd;stroke-linejoin:round;stroke-miterlimit:2;">
    <g transform="matrix(1,0,0,1,-33.38,-185.2)">
        <g transform="matrix(1,0,0,1,87.0889,64.5554)">
            <g id="BACKGROUND">
                <rect x="0" y="0" width="500" height="500" style="fill:white;"/>
            </g>
        </g>
        <g id="OBJECT">
            <g transform="matrix(1,0,0,1,162.97,250)">
                <path d="M0,0C0,15.98 -5.78,30.6 -15.36,41.89C-19.28,46.51 -23.84,50.58 -28.9,53.95C-30.66,55.13 -32.49,56.22 -34.37,57.22C-41.29,60.91 -48.97,63.39 -57.11,64.35C-59.63,64.65 -62.2,64.8 -64.8,64.8C-67.97,64.8 -71.09,64.57 -74.14,64.13C-82.4,62.94 -90.15,60.19 -97.09,56.19L-97.1,56.19C-98.87,55.17 -100.59,54.07 -102.25,52.89C-107.18,49.38 -111.6,45.21 -115.38,40.5C-124.27,29.41 -129.59,15.33 -129.59,0C-129.59,-35.79 -100.58,-64.8 -64.8,-64.8C-29.01,-64.8 0,-35.79 0,0" style="fill:rgb(215,234,241);fill-rule:nonzero;"/>
            </g>
            <g transform="matrix(1,0,0,1,147.61,297.41)">
                <path d="M0,-5.52C-3.92,-0.9 -8.48,3.17 -13.54,6.54C-15.3,7.72 -17.13,8.81 -19.01,9.81C-25.93,13.5 -33.61,15.98 -41.75,16.94C-44.27,17.24 -46.84,17.39 -49.44,17.39C-52.61,17.39 -55.73,17.16 -58.78,16.72C-67.04,15.53 -74.79,12.78 -81.73,8.78L-81.74,8.78C-83.51,7.76 -85.23,6.66 -86.89,5.48C-91.82,1.97 -96.24,-2.2 -100.02,-6.91C-100.01,-6.95 -99.99,-6.98 -99.97,-7.02C-99.85,-7.29 -99.73,-7.55 -99.6,-7.8C-99.5,-8.01 -99.39,-8.22 -99.27,-8.42C-99.23,-8.51 -99.18,-8.6 -99.12,-8.69C-99.02,-8.87 -98.91,-9.05 -98.8,-9.22C-98.71,-9.37 -98.62,-9.51 -98.53,-9.65C-98.36,-9.91 -98.17,-10.17 -97.98,-10.42C-97.82,-10.65 -97.65,-10.87 -97.47,-11.08C-97.3,-11.29 -97.12,-11.5 -96.94,-11.7C-96.89,-11.76 -96.83,-11.82 -96.78,-11.87C-96.58,-12.09 -96.37,-12.31 -96.15,-12.52C-96.12,-12.55 -96.1,-12.57 -96.08,-12.59C-95.87,-12.79 -95.65,-12.99 -95.43,-13.18C-95.18,-13.4 -94.93,-13.61 -94.67,-13.81C-94.46,-13.98 -94.24,-14.14 -94.02,-14.29C-93.73,-14.5 -93.44,-14.7 -93.13,-14.88C-92.96,-14.99 -92.78,-15.1 -92.59,-15.2C-92.05,-15.52 -91.49,-15.8 -90.91,-16.05C-90.71,-16.14 -90.52,-16.22 -90.32,-16.3C-90.02,-16.42 -89.72,-16.53 -89.41,-16.63C-89.11,-16.73 -88.81,-16.83 -88.5,-16.91L-72.97,-21.2L-72.45,-21.34L-69.28,-22.22L-67.47,-22.72L-66.78,-22.91L-33.78,-22.91L-33.09,-22.72L-31.28,-22.22L-28.11,-21.34L-27.59,-21.2L-12.06,-16.91C-6.34,-15.33 -1.86,-11.02 0,-5.52" style="fill:white;fill-rule:nonzero;"/>
            </g>
            <g transform="matrix(1,0,0,1,114.52,263.66)">
                <path d="M0,11.03C-3.83,16.08 -10.1,19.37 -17.19,19.37C-24.28,19.37 -30.55,16.08 -34.38,11.03L-29.44,9.66L-27.57,-0.84L-26.23,-8.34L-17.19,-4.8L-8.15,-8.34L-5.21,8.14L-4.94,9.66L0,11.03Z" style="fill:rgb(246,151,121);fill-rule:nonzero;"/>
            </g>
            <g transform="matrix(1,0,0,1,109.31,256.48)">
                <path d="M0,15.32C-3.28,16.48 -5.83,16.48 -5.83,16.48C-5.83,16.48 -16.66,16.48 -22.36,6.34L-21.02,-1.16L-11.98,2.38L-2.94,-1.16L0,15.32Z" style="fill:rgb(243,122,103);fill-rule:nonzero;"/>
            </g>
            <g transform="matrix(1,0,0,1,147.61,297.65)">
                <path d="M0,-5.76C-3.92,-1.14 -8.48,2.93 -13.54,6.3C-15.3,7.48 -17.13,8.57 -19.01,9.57C-25.93,13.26 -33.61,15.74 -41.75,16.7C-43.07,7.38 -41.46,-2.75 -41.46,-2.75C-41.46,-3.85 -41.28,-5.15 -40.98,-6.53C-39.85,-11.9 -37.06,-18.42 -37.06,-18.42L-36.29,-18.96L-31.28,-22.46L-28.11,-21.58L-27.59,-21.44L-12.06,-17.15C-6.34,-15.57 -1.86,-11.26 0,-5.76" style="fill:rgb(161,204,54);fill-rule:nonzero;"/>
            </g>
            <g transform="matrix(1,0,0,1,88.83,275.19)">
                <path d="M0,38.94C-8.26,37.75 -16.01,35 -22.95,31L-22.96,31C-24.73,29.98 -26.45,28.88 -28.11,27.7C-33.04,24.19 -37.46,20.02 -41.24,15.31C-41.23,15.27 -41.21,15.24 -41.19,15.2C-41.07,14.93 -40.95,14.67 -40.82,14.42C-40.72,14.21 -40.61,14 -40.49,13.8C-40.45,13.71 -40.4,13.62 -40.34,13.53C-40.24,13.35 -40.13,13.17 -40.02,13C-39.93,12.85 -39.84,12.71 -39.75,12.57C-39.58,12.31 -39.39,12.05 -39.2,11.8C-39.04,11.57 -38.87,11.35 -38.69,11.14C-38.52,10.93 -38.34,10.72 -38.16,10.52C-38.11,10.46 -38.05,10.4 -38,10.35C-37.8,10.13 -37.59,9.91 -37.37,9.7C-37.34,9.67 -37.32,9.65 -37.3,9.63C-37.09,9.43 -36.87,9.23 -36.65,9.04C-36.4,8.82 -36.15,8.61 -35.89,8.41C-35.68,8.24 -35.46,8.08 -35.24,7.93C-34.95,7.72 -34.66,7.52 -34.35,7.34C-34.18,7.23 -34,7.12 -33.81,7.02C-33.27,6.7 -32.71,6.42 -32.13,6.17C-31.93,6.08 -31.74,6 -31.54,5.92C-31.24,5.8 -30.94,5.69 -30.63,5.59C-30.33,5.49 -30.03,5.39 -29.72,5.31L-14.19,1.02L-13.67,0.88L-10.5,0L-5.49,3.5L-4.72,4.04C-4.72,4.04 -1.93,10.56 -0.8,15.93L-0.8,15.94C-0.5,17.32 -0.32,18.61 -0.32,19.71C-0.32,19.71 1.26,29.68 0,38.94" style="fill:rgb(161,204,54);fill-rule:nonzero;"/>
            </g>
            <g transform="matrix(1,0,0,1,117.079,231.205)">
                <path d="M0,-15.132C-2.312,-19.468 -6.735,-21.867 -10.809,-23.193C-16.605,-25.08 -22.893,-25.08 -28.688,-23.193C-32.763,-21.867 -37.185,-19.468 -39.498,-15.132C-43.678,-7.128 -42.966,5.324 -42.966,5.324L-38.608,9.948L-19.749,7.555L-0.889,9.948L3.469,5.324C3.469,5.324 4.18,-7.128 0,-15.132" style="fill:rgb(5,23,51);fill-rule:nonzero;"/>
            </g>
            <g transform="matrix(1,0,0,1,121.758,241.556)">
                <path d="M0,-5.781C-0.122,-6.579 -0.417,-7.389 -1.026,-7.919C-1.575,-8.396 -2.331,-8.593 -3.058,-8.562C-3.785,-8.531 -4.489,-8.288 -5.144,-7.971C-5.144,-7.971 -5.208,-26.406 -11.743,-26.62C-16.029,-26.835 -17.935,-25.549 -24.428,-25.549C-30.92,-25.549 -32.827,-26.835 -37.112,-26.62C-43.647,-26.406 -43.711,-7.971 -43.711,-7.971C-44.366,-8.288 -45.07,-8.531 -45.797,-8.562C-46.525,-8.593 -47.28,-8.396 -47.829,-7.919C-48.439,-7.389 -48.734,-6.579 -48.855,-5.781C-49.099,-4.179 -48.716,-2.491 -47.805,-1.152C-46.893,0.187 -45.548,1.195 -43.969,1.556C-41.183,21.054 -24.428,21.054 -24.428,21.054C-24.428,21.054 -7.672,21.054 -4.887,1.556C-3.308,1.195 -1.962,0.187 -1.051,-1.152C-0.14,-2.491 0.244,-4.179 0,-5.781" style="fill:rgb(246,151,121);fill-rule:nonzero;"/>
            </g>
            <g transform="matrix(0.985474,-0.169828,-0.169828,-0.985474,111.393,283.249)">
                <path d="M-0.15,-0.429C-0.15,-0.429 -4.99,-4.405 -7.149,-10.593L-0.15,12.289L1.753,10.613L-0.15,-0.429Z" style="fill:rgb(113,143,38);fill-rule:nonzero;"/>
            </g>
            <g transform="matrix(-0.890199,0.455571,0.455571,0.890199,125.483,285.102)">
                <path d="M6.265,-25.994C6.265,-25.994 0.588,-19.065 0.26,-13.087L6.265,1.51L11.97,-7.704L6.265,-25.994Z" style="fill:rgb(191,224,108);fill-rule:nonzero;"/>
            </g>
            <g transform="matrix(0.985474,0.169828,0.169828,-0.985474,83.2673,283.249)">
                <path d="M0.15,-0.429C0.15,-0.429 4.99,-4.405 7.149,-10.593L0.15,12.289L-1.753,10.613L0.15,-0.429Z" style="fill:rgb(113,143,38);fill-rule:nonzero;"/>
            </g>
            <g transform="matrix(-0.890199,-0.455571,-0.455571,0.890199,69.1773,285.102)">
                <path d="M-6.265,-25.994C-6.265,-25.994 -0.588,-19.065 -0.26,-13.087L-6.265,1.51L-11.97,-7.704L-6.265,-25.994Z" style="fill:rgb(191,224,108);fill-rule:nonzero;"/>
            </g>
            <g transform="matrix(1,0,0,1,74.2334,197.418)">
                <path d="M0,32.477C0,32.477 -2.112,14.867 9.101,7.097L9.101,10.146C9.101,10.146 21.101,-1.363 37.33,6.113L33.986,7.293C33.986,7.293 41.166,7.49 44.904,12.408L41.363,12.605C41.363,12.605 45.789,14.277 46.871,19.195L43.527,17.493C43.527,17.493 47.653,23.048 46.278,33.84L40.287,18.408L37.527,15.555L23.941,13.982L10.871,14.277L5.907,17.493L3.888,22.736L0,32.477Z" style="fill:rgb(5,23,51);fill-rule:nonzero;"/>
            </g>
            <g transform="matrix(1,0,0,1,96.3908,244.376)">
                <path d="M0,-11.441L0,0L1.939,0C5.263,0 0.617,-10.126 0,-11.441" style="fill:rgb(243,122,103);fill-rule:nonzero;"/>
            </g>
            <g transform="matrix(-0.18836,-0.9821,-0.9821,0.18836,105.069,224.775)">
                <path d="M-4.657,-4.624C-2.852,-2.241 -2.098,0.646 -2.663,3.599C-2.903,4.85 -4.9,4.709 -4.657,3.44C-4.195,1.022 -4.665,-1.33 -6.164,-3.308C-6.939,-4.332 -5.436,-5.652 -4.657,-4.624" style="fill:rgb(5,23,51);fill-rule:nonzero;"/>
            </g>
            <g transform="matrix(0,-1,-1,0,106.189,231.049)">
                <path d="M-1.886,-1.886C-2.928,-1.886 -3.772,-1.042 -3.772,0C-3.772,1.042 -2.928,1.886 -1.886,1.886C-0.844,1.886 0,1.042 0,0C0,-1.042 -0.844,-1.886 -1.886,-1.886" style="fill:rgb(5,23,51);fill-rule:nonzero;"/>
            </g>
            <g transform="matrix(-0.18836,0.9821,0.9821,0.18836,89.5905,224.775)">
                <path d="M4.657,-4.624C2.852,-2.241 2.098,0.646 2.663,3.599C2.903,4.85 4.9,4.709 4.657,3.44C4.195,1.022 4.665,-1.33 6.164,-3.308C6.939,-4.332 5.436,-5.652 4.657,-4.624" style="fill:rgb(5,23,51);fill-rule:nonzero;"/>
            </g>
            <g transform="matrix(0,1,1,0,88.4705,231.049)">
                <path d="M1.886,-1.886C2.928,-1.886 3.772,-1.042 3.772,0C3.772,1.042 2.928,1.886 1.886,1.886C0.844,1.886 -0,1.042 -0,0C-0,-1.042 0.844,-1.886 1.886,-1.886" style="fill:rgb(5,23,51);fill-rule:nonzero;"/>
            </g>
            <g transform="matrix(1,0,0,1,91.1845,253.175)">
                <path d="M0,-4.33C0.665,-1.848 3.16,0 6.145,0C9.131,0 11.626,-1.848 12.291,-4.33L0,-4.33Z" style="fill:white;fill-rule:nonzero;"/>
            </g>
            <g transform="matrix(1,0,0,1,134.07,291.27)">
                <path d="M0,12.68C-1.76,13.86 -3.59,14.95 -5.47,15.95L-1.95,-3.27L0,12.68Z" style="fill:rgb(113,143,38);fill-rule:nonzero;"/>
            </g>
            <g transform="matrix(1,0,0,1,65.87,288)">
                <path d="M0,18.19C-1.77,17.17 -3.49,16.07 -5.15,14.89L-3.33,0L0,18.19Z" style="fill:rgb(113,143,38);fill-rule:nonzero;"/>
            </g>
        </g>
    </g>
</svg>
