<?xml version="1.0" encoding="UTF-8" standalone="no"?>
<!DOCTYPE svg PUBLIC "-//W3C//DTD SVG 1.1//EN" "http://www.w3.org/Graphics/SVG/1.1/DTD/svg11.dtd">
<svg width="100%" height="100%" viewBox="0 0 130 130" version="1.1" xmlns="http://www.w3.org/2000/svg" xmlns:xlink="http://www.w3.org/1999/xlink" xml:space="preserve" xmlns:serif="http://www.serif.com/" style="fill-rule:evenodd;clip-rule:evenodd;stroke-linejoin:round;stroke-miterlimit:2;">
    <g transform="matrix(1,0,0,1,-33.38,-336.4)">
        <g id="BACKGROUND">
        </g>
        <g id="OBJECT">
            <g transform="matrix(1,0,0,1,162.97,401.2)">
                <path d="M0,-0.01C0,15.7 -5.59,30.11 -14.9,41.33C-18.86,46.11 -23.49,50.31 -28.66,53.78C-30.64,55.12 -32.69,56.34 -34.82,57.45C-43.78,62.14 -53.98,64.79 -64.8,64.79C-76.38,64.79 -87.25,61.75 -96.65,56.43C-98.67,55.29 -100.62,54.05 -102.49,52.7C-107.57,49.06 -112.11,44.7 -115.94,39.77C-124.5,28.79 -129.59,14.98 -129.59,-0.01C-129.59,-35.79 -100.58,-64.8 -64.8,-64.8C-29.01,-64.8 0,-35.79 0,-0.01" style="fill:rgb(215,234,241);fill-rule:nonzero;"/>
            </g>
            <g transform="matrix(1,0,0,1,148.07,444.46)">
                <path d="M0,-1.93C-3.96,2.85 -8.59,7.05 -13.76,10.52C-15.74,11.86 -17.79,13.08 -19.92,14.19C-28.88,18.88 -39.08,21.53 -49.9,21.53C-61.48,21.53 -72.35,18.49 -81.75,13.17C-83.77,12.03 -85.72,10.79 -87.59,9.44C-92.67,5.8 -97.21,1.44 -101.04,-3.49C-99.2,-9.03 -94.7,-13.38 -88.96,-14.96L-73.43,-19.25L-67.83,-20.8L-62.99,-22.14L-62.75,-23.46L-38.73,-23.46L-38.49,-22.14L-33.65,-20.8L-28.05,-19.25L-12.52,-14.96C-6.25,-13.23 -1.46,-8.21 0,-1.93" style="fill:rgb(189,148,143);fill-rule:nonzero;"/>
            </g>
            <g transform="matrix(1,0,0,1,109.345,433.44)">
                <path d="M0,-12.44L-24.029,-12.44L-24.265,-11.12L-29.105,-9.78L-28.965,-9.4C-28.895,-9.22 -28.825,-9.06 -28.765,-8.92C-26.945,-3.64 -20.185,0 -12.015,0C-3.845,0 2.915,-3.64 4.735,-8.92C4.795,-9.06 4.865,-9.22 4.935,-9.4L5.075,-9.78L0.235,-11.12L0,-12.44Z" style="fill:rgb(61,57,54);fill-rule:nonzero;"/>
            </g>
            <g transform="matrix(1,0,0,1,109.58,410.44)">
                <path d="M0,11.88C-0.04,11.99 -0.1,12.08 -0.15,12.18C-1.02,15.47 -6.1,18 -12.25,18C-18.4,18 -23.48,15.47 -24.35,12.18C-24.4,12.08 -24.46,11.99 -24.5,11.88L-22.56,1L-21.29,-6.12L-12.25,-2.58L-3.21,-6.12L-0.36,9.88L0,11.88Z" style="fill:rgb(246,151,121);fill-rule:nonzero;"/>
            </g>
            <g transform="matrix(1,0,0,1,109.22,405.45)">
                <path d="M0,14.87C-3.23,16 -5.74,16 -5.74,16C-5.74,16 -16.49,16 -22.2,5.99L-20.93,-1.13L-11.89,2.41L-2.85,-1.13L0,14.87Z" style="fill:rgb(243,122,103);fill-rule:nonzero;"/>
            </g>
            <g transform="matrix(-0.989997,0.141091,0.141091,0.989997,122.759,399.751)">
                <path d="M11.286,-43.486C11.286,-43.486 0.588,-42.936 -1.71,-34.899C-3.393,-29.009 -0.852,0.54 11.286,0.606L15.43,-41.759L11.286,-43.486Z" style="fill:rgb(5,23,51);fill-rule:nonzero;"/>
            </g>
            <g transform="matrix(-0.989997,-0.141091,-0.141091,0.989997,71.9011,399.751)">
                <path d="M-11.286,-43.486C-11.286,-43.486 -0.588,-42.936 1.71,-34.899C3.393,-29.009 0.852,0.54 -11.286,0.606L-15.43,-41.759L-11.286,-43.486Z" style="fill:rgb(5,23,51);fill-rule:nonzero;"/>
            </g>
            <g transform="matrix(1,0,0,1,121.758,390.556)">
                <path d="M0,-5.781C-0.122,-6.579 -0.417,-7.389 -1.026,-7.918C-1.575,-8.396 -2.331,-8.593 -3.058,-8.562C-3.785,-8.531 -4.489,-8.288 -5.144,-7.971C-5.144,-7.971 -5.208,-26.406 -11.743,-26.62C-16.029,-26.835 -17.935,-25.549 -24.428,-25.549C-30.92,-25.549 -32.827,-26.835 -37.112,-26.62C-43.647,-26.406 -43.711,-7.971 -43.711,-7.971C-44.366,-8.288 -45.07,-8.531 -45.797,-8.562C-46.525,-8.593 -47.28,-8.396 -47.829,-7.918C-48.439,-7.389 -48.734,-6.579 -48.855,-5.781C-49.099,-4.179 -48.716,-2.491 -47.805,-1.152C-46.893,0.188 -45.548,1.195 -43.969,1.556C-41.183,21.054 -24.428,21.054 -24.428,21.054C-24.428,21.054 -7.672,21.054 -4.887,1.556C-3.308,1.195 -1.962,0.188 -1.051,-1.152C-0.14,-2.491 0.244,-4.179 0,-5.781" style="fill:rgb(246,151,121);fill-rule:nonzero;"/>
            </g>
            <g transform="matrix(1,0,0,1,110.014,365.985)">
                <path d="M0,-2.05C0,-2.05 0.807,-9.993 -18.76,-9.993C-29.136,-9.993 -32.693,-3.471 -34.027,-0.358L-30.618,-1.396C-30.618,-1.396 -34.768,4.089 -34.027,7.943C-34.027,7.943 -28.098,2.31 -23.206,1.865C-18.315,1.421 -4.957,0.705 0,-2.05" style="fill:rgb(5,23,51);fill-rule:nonzero;"/>
            </g>
            <g transform="matrix(1,0,0,1,134.31,440.67)">
                <path d="M0,14.31C-1.98,15.65 -4.03,16.87 -6.16,17.98L-2.19,-3.67L0,14.31Z" style="fill:rgb(156,118,114);fill-rule:nonzero;"/>
            </g>
            <g transform="matrix(1,0,0,1,66.32,437)">
                <path d="M0,20.63C-2.02,19.49 -3.97,18.25 -5.84,16.9L-3.78,0L0,20.63Z" style="fill:rgb(156,118,114);fill-rule:nonzero;"/>
            </g>
            <g transform="matrix(1,0,0,1,96.3908,396.876)">
                <path d="M0,-11.441L0,0L1.939,0C5.263,0 0.617,-10.126 0,-11.441" style="fill:rgb(243,122,103);fill-rule:nonzero;"/>
            </g>
            <g transform="matrix(-0.18836,-0.9821,-0.9821,0.18836,105.069,377.275)">
                <path d="M-4.657,-4.624C-2.852,-2.241 -2.098,0.646 -2.663,3.599C-2.903,4.85 -4.9,4.709 -4.657,3.44C-4.195,1.022 -4.665,-1.33 -6.164,-3.308C-6.939,-4.332 -5.436,-5.652 -4.657,-4.624" style="fill:rgb(5,23,51);fill-rule:nonzero;"/>
            </g>
            <g transform="matrix(0,-1,-1,0,106.189,383.549)">
                <path d="M-1.886,-1.886C-2.928,-1.886 -3.772,-1.042 -3.772,0C-3.772,1.042 -2.928,1.886 -1.886,1.886C-0.844,1.886 0,1.042 0,0C0,-1.042 -0.844,-1.886 -1.886,-1.886" style="fill:rgb(5,23,51);fill-rule:nonzero;"/>
            </g>
            <g transform="matrix(-0.18836,0.9821,0.9821,0.18836,89.5905,377.275)">
                <path d="M4.657,-4.624C2.852,-2.241 2.098,0.646 2.663,3.599C2.903,4.85 4.9,4.709 4.657,3.44C4.195,1.022 4.665,-1.33 6.164,-3.308C6.939,-4.332 5.436,-5.652 4.657,-4.624" style="fill:rgb(5,23,51);fill-rule:nonzero;"/>
            </g>
            <g transform="matrix(0,1,1,0,88.4705,383.549)">
                <path d="M1.886,-1.886C2.928,-1.886 3.772,-1.042 3.772,0C3.772,1.042 2.928,1.886 1.886,1.886C0.844,1.886 -0,1.042 -0,0C-0,-1.042 0.844,-1.886 1.886,-1.886" style="fill:rgb(5,23,51);fill-rule:nonzero;"/>
            </g>
            <g transform="matrix(1,0,0,1,91.1845,405.675)">
                <path d="M0,-4.33C0.665,-1.848 3.16,0 6.145,0C9.131,0 11.626,-1.848 12.291,-4.33L0,-4.33Z" style="fill:white;fill-rule:nonzero;"/>
            </g>
        </g>
    </g>
</svg>
