<?xml version="1.0" encoding="UTF-8" standalone="no"?>
<!DOCTYPE svg PUBLIC "-//W3C//DTD SVG 1.1//EN" "http://www.w3.org/Graphics/SVG/1.1/DTD/svg11.dtd">
<svg width="100%" height="100%" viewBox="0 0 130 130" version="1.1" xmlns="http://www.w3.org/2000/svg" xmlns:xlink="http://www.w3.org/1999/xlink" xml:space="preserve" xmlns:serif="http://www.serif.com/" style="fill-rule:evenodd;clip-rule:evenodd;stroke-linejoin:round;stroke-miterlimit:2;">
    <g transform="matrix(1,0,0,1,-337.03,-34.01)">
        <g transform="matrix(1,0,0,1,87.0889,64.5554)">
            <g id="BACKGROUND">
                <rect x="0" y="0" width="500" height="500" style="fill:white;"/>
            </g>
        </g>
        <g id="OBJECT">
            <g transform="matrix(1,0,0,1,466.62,98.8)">
                <path d="M0,0.01C0,15.4 -5.37,29.54 -14.33,40.65C-18.38,45.68 -23.17,50.08 -28.53,53.7C-29.88,54.62 -31.27,55.49 -32.69,56.3C-34.5,57.34 -36.37,58.29 -38.29,59.15C-45.04,62.18 -52.4,64.09 -60.14,64.63C-61.49,64.73 -62.84,64.79 -64.21,64.79C-64.4,64.8 -64.6,64.8 -64.79,64.8C-64.98,64.8 -65.16,64.8 -65.35,64.79C-67.97,64.78 -70.55,64.6 -73.09,64.27C-79.5,63.45 -85.61,61.7 -91.29,59.15C-93.21,58.29 -95.08,57.34 -96.89,56.3C-98.31,55.49 -99.7,54.63 -101.05,53.71C-106.41,50.09 -111.2,45.68 -115.25,40.65C-124.22,29.54 -129.59,15.4 -129.59,0.01C-129.59,-35.78 -100.58,-64.79 -64.79,-64.79C-29.01,-64.79 0,-35.78 0,0.01" style="fill:rgb(215,234,241);fill-rule:nonzero;"/>
            </g>
            <g transform="matrix(1,0,0,1,452.29,126.47)">
                <path d="M0,12.98C-4.05,18.01 -8.84,22.41 -14.2,26.03C-15.55,26.95 -16.94,27.82 -18.36,28.63C-20.17,29.67 -22.04,30.62 -23.96,31.48C-30.71,34.51 -38.07,36.42 -45.81,36.96C-47.16,37.06 -48.51,37.12 -49.88,37.12C-50.07,37.13 -50.27,37.13 -50.46,37.13C-50.65,37.13 -50.83,37.13 -51.02,37.12C-53.64,37.11 -56.22,36.93 -58.76,36.6C-65.17,35.78 -71.28,34.03 -76.96,31.48C-78.88,30.62 -80.75,29.67 -82.56,28.63C-83.98,27.82 -85.37,26.96 -86.72,26.04C-92.08,22.42 -96.87,18.01 -100.92,12.98C-99.18,7.21 -94.59,2.66 -88.68,1.03L-77.69,-2.01L-73.15,-3.26L-63.67,-5.89L-63.15,-6.03L-62.71,-6.15L-62.15,-9.31L-62.15,-9.32L-61.58,-12.47L-61.3,-14.08L-60.44,-18.87L-60.26,-19.92L-59.5,-24.15L-51.58,-21.05L-50.46,-20.61L-49.34,-21.05L-41.42,-24.15L-40.66,-19.92L-40.53,-19.15L-40.03,-16.33L-40.02,-16.33L-39.34,-12.47L-38.21,-6.15L-37.77,-6.03L-37.24,-5.88L-27.77,-3.26L-23.23,-2L-12.24,1.03C-6.33,2.66 -1.74,7.21 0,12.98" style="fill:rgb(71,73,214);fill-rule:nonzero;"/>
            </g>
            <g transform="matrix(1,0,0,1,421.579,78.2053)">
                <path d="M0,-15.132C-2.312,-19.468 -6.735,-21.867 -10.809,-23.193C-16.605,-25.08 -22.893,-25.08 -28.689,-23.193C-32.763,-21.867 -37.185,-19.468 -39.498,-15.132C-43.678,-7.128 -42.966,5.324 -42.966,5.324L-38.608,9.948L-19.749,7.555L-0.889,9.948L3.469,5.324C3.469,5.324 4.18,-7.128 0,-15.132" style="fill:rgb(5,23,51);fill-rule:nonzero;"/>
            </g>
            <g transform="matrix(1,0,0,1,395.395,48.2875)">
                <path d="M0,16.809C0,16.809 -6.922,9.491 -2.672,4.095C-2.446,3.808 -2.086,3.655 -1.72,3.655L-1.005,3.655C-0.376,3.655 0.212,3.345 0.568,2.826L1.898,0.882C2.307,0.284 3.176,0.242 3.64,0.8L3.996,1.226C4.429,1.746 5.215,1.782 5.693,1.303L6.567,0.429C6.981,0.015 7.648,0 8.079,0.396L8.961,1.205C9.431,1.635 10.161,1.602 10.59,1.131L10.851,0.844C11.361,0.282 12.274,0.398 12.628,1.07L13.614,2.943C13.832,3.357 14.312,3.559 14.76,3.424L15.12,3.316C15.705,3.141 16.328,3.414 16.593,3.965C17.559,5.971 19.17,10.888 14.824,15.556L0,16.809Z" style="fill:rgb(29,56,99);fill-rule:nonzero;"/>
            </g>
            <g transform="matrix(1,0,0,1,426.258,88.5558)">
                <path d="M0,-5.781C-0.121,-6.579 -0.417,-7.389 -1.026,-7.919C-1.575,-8.396 -2.331,-8.593 -3.058,-8.562C-3.785,-8.531 -4.489,-8.288 -5.144,-7.971C-5.144,-7.971 -5.208,-26.406 -11.743,-26.62C-16.029,-26.835 -17.935,-25.549 -24.428,-25.549C-30.92,-25.549 -32.827,-26.835 -37.112,-26.62C-43.647,-26.406 -43.711,-7.971 -43.711,-7.971C-44.366,-8.288 -45.07,-8.531 -45.797,-8.562C-46.525,-8.593 -47.28,-8.396 -47.829,-7.919C-48.439,-7.389 -48.734,-6.579 -48.855,-5.781C-49.099,-4.179 -48.716,-2.491 -47.805,-1.152C-46.893,0.187 -45.548,1.195 -43.969,1.556C-41.183,21.054 -24.428,21.054 -24.428,21.054C-24.428,21.054 -7.672,21.054 -4.887,1.556C-3.308,1.195 -1.962,0.187 -1.051,-1.152C-0.139,-2.491 0.244,-4.179 0,-5.781" style="fill:rgb(246,151,121);fill-rule:nonzero;"/>
            </g>
            <g transform="matrix(1,0,0,1,418.83,156.14)">
                <path d="M0,-28.1L-12.35,7.29C-13.7,7.39 -15.05,7.45 -16.42,7.45C-16.61,7.46 -16.81,7.46 -17,7.46C-17.19,7.46 -17.37,7.46 -17.56,7.45C-20.18,7.44 -22.76,7.26 -25.3,6.93L-33.99,-28.1L-30.21,-35.56L-27.06,-35.56L-4.33,-35.55L-3.78,-35.55L0,-28.1Z" style="fill:rgb(255,163,59);fill-rule:nonzero;"/>
            </g>
            <g transform="matrix(1,0,0,1,414.52,109.92)">
                <path d="M0,10.52C-0.07,11.08 -0.22,11.62 -0.46,12.14C-1.98,15.59 -6.89,18.12 -12.69,18.12C-19.37,18.12 -24.87,14.77 -25.38,10.52L-24.94,10.4L-24.38,7.23L-22.67,-2.32L-21.73,-7.6L-13.81,-4.5L-13.81,1.62C-13.44,1.6 -13.07,1.59 -12.69,1.59C-12.31,1.59 -11.94,1.6 -11.57,1.62L-11.57,-4.5L-3.65,-7.6L-2.25,0.22L-0.44,10.4L0,10.52Z" style="fill:rgb(246,151,121);fill-rule:nonzero;"/>
            </g>
            <g transform="matrix(1,0,0,1,414.52,112.23)">
                <path d="M0,8.21C-0.07,8.77 -0.22,9.31 -0.46,9.83C-2.72,10.63 -4.34,10.34 -4.34,10.34C-4.34,10.34 -6,12.84 -10.5,12.84C-15.01,12.84 -16.67,10.34 -16.67,10.34C-16.67,10.34 -18.5,10.67 -20.99,9.67C-22.94,8.86 -23.9,6.8 -24.38,4.92L-22.67,-4.63C-22.55,-4.52 -22.43,-4.41 -22.31,-4.3C-20.04,-2.27 -17.09,-1.16 -14.04,-1.16L-6.97,-1.16C-5.34,-1.16 -3.74,-1.48 -2.25,-2.09L-0.44,8.09L0,8.21Z" style="fill:rgb(243,122,103);fill-rule:nonzero;"/>
            </g>
            <g transform="matrix(1,0,0,1,423.21,137.18)">
                <path d="M0,9.82L5.12,20.77C-1.63,23.8 -8.99,25.71 -16.73,26.25C-18.08,26.35 -19.43,26.41 -20.8,26.41L-8.16,-16.59L1.31,-13.97L5.85,-12.71L13.25,0.32L0,9.82Z" style="fill:rgb(115,117,245);fill-rule:nonzero;"/>
            </g>
            <g transform="matrix(1,0,0,1,401.27,120.58)">
                <path d="M0,43.01C-2.62,43 -5.2,42.82 -7.74,42.49C-14.15,41.67 -20.26,39.92 -25.94,37.37L-20.81,26.42L-34.06,16.92L-26.67,3.88L-22.13,2.63L-12.65,0L0,43.01Z" style="fill:rgb(115,117,245);fill-rule:nonzero;"/>
            </g>
            <g transform="matrix(1,0,0,1,421.113,117.5)">
                <path d="M0,-36.915C-3.714,-32.04 -2.62,-23 -2.62,-23C-3.634,-20.894 -5.634,-18.787 -7.475,-17.142C-9.75,-15.11 -12.699,-14 -15.75,-14L-22.817,-14C-25.868,-14 -28.817,-15.11 -31.092,-17.142C-32.932,-18.787 -34.933,-20.894 -35.947,-23C-35.947,-23 -34.853,-32.04 -38.567,-36.915C-38.567,-36.915 -39.947,-14.5 -36.447,-11.667C-34.78,-10 -33.613,-11.667 -33.613,-11.667C-33.613,-11.667 -33.76,-4.833 -29.77,-3.167C-27.28,-2.167 -25.447,-2.5 -25.447,-2.5C-25.447,-2.5 -23.787,0 -19.284,0C-14.78,0 -13.12,-2.5 -13.12,-2.5C-13.12,-2.5 -11.287,-2.167 -8.797,-3.167C-4.806,-4.833 -4.953,-11.667 -4.953,-11.667C-4.953,-11.667 -3.787,-10 -2.12,-11.667C1.38,-14.5 0,-36.915 0,-36.915" style="fill:rgb(5,23,51);fill-rule:nonzero;"/>
            </g>
            <g transform="matrix(1,0,0,1,438.09,143.04)">
                <path d="M0,9.46C-1.35,10.38 -2.74,11.25 -4.16,12.06L-1.47,-2.6L0,9.46Z" style="fill:rgb(53,55,161);fill-rule:nonzero;"/>
            </g>
            <g transform="matrix(1,0,0,1,369.73,140.44)">
                <path d="M0,14.66C-1.42,13.85 -2.81,12.99 -4.16,12.07L-2.69,0L0,14.66Z" style="fill:rgb(53,55,161);fill-rule:nonzero;"/>
            </g>
            <g transform="matrix(1,0,0,1,400.891,90.3765)">
                <path d="M0,-11.441L0,0L1.939,0C5.263,0 0.617,-10.126 0,-11.441" style="fill:rgb(243,122,103);fill-rule:nonzero;"/>
            </g>
            <g transform="matrix(-0.18836,-0.9821,-0.9821,0.18836,409.569,70.7749)">
                <path d="M-4.657,-4.624C-2.852,-2.241 -2.098,0.647 -2.663,3.599C-2.903,4.85 -4.9,4.709 -4.657,3.44C-4.195,1.022 -4.665,-1.33 -6.164,-3.308C-6.939,-4.332 -5.436,-5.652 -4.657,-4.624" style="fill:rgb(5,23,51);fill-rule:nonzero;"/>
            </g>
            <g transform="matrix(0,-1,-1,0,410.689,77.0495)">
                <path d="M-1.886,-1.886C-2.928,-1.886 -3.772,-1.042 -3.772,0C-3.772,1.042 -2.928,1.886 -1.886,1.886C-0.844,1.886 0,1.042 0,0C0,-1.042 -0.844,-1.886 -1.886,-1.886" style="fill:rgb(5,23,51);fill-rule:nonzero;"/>
            </g>
            <g transform="matrix(-0.18836,0.9821,0.9821,0.18836,394.091,70.7749)">
                <path d="M4.657,-4.624C2.852,-2.241 2.098,0.647 2.663,3.599C2.903,4.85 4.9,4.709 4.657,3.44C4.195,1.022 4.665,-1.33 6.164,-3.308C6.939,-4.332 5.436,-5.652 4.657,-4.624" style="fill:rgb(5,23,51);fill-rule:nonzero;"/>
            </g>
            <g transform="matrix(0,1,1,0,392.971,77.0495)">
                <path d="M1.886,-1.886C2.928,-1.886 3.772,-1.042 3.772,0C3.772,1.042 2.928,1.886 1.886,1.886C0.844,1.886 -0,1.042 -0,0C-0,-1.042 0.844,-1.886 1.886,-1.886" style="fill:rgb(5,23,51);fill-rule:nonzero;"/>
            </g>
            <g transform="matrix(1,0,0,1,395.685,102.175)">
                <path d="M0,-4.33C0.665,-1.848 3.16,0 6.146,0C9.131,0 11.626,-1.848 12.291,-4.33L0,-4.33Z" style="fill:white;fill-rule:nonzero;"/>
            </g>
        </g>
    </g>
</svg>
