<?xml version="1.0" encoding="UTF-8" standalone="no"?>
<!DOCTYPE svg PUBLIC "-//W3C//DTD SVG 1.1//EN" "http://www.w3.org/Graphics/SVG/1.1/DTD/svg11.dtd">
<svg width="100%" height="100%" viewBox="0 0 130 130" version="1.1" xmlns="http://www.w3.org/2000/svg" xmlns:xlink="http://www.w3.org/1999/xlink" xml:space="preserve" xmlns:serif="http://www.serif.com/" style="fill-rule:evenodd;clip-rule:evenodd;stroke-linejoin:round;stroke-miterlimit:2;">
    <g transform="matrix(1,0,0,1,-337.03,-336.4)">
        <g id="BACKGROUND">
        </g>
        <g id="OBJECT">
            <g transform="matrix(1,0,0,1,466.62,401.2)">
                <path d="M0,-0.01C0,15.33 -5.33,29.43 -14.25,40.53C-18.15,45.4 -22.74,49.68 -27.87,53.24C-29.8,54.59 -31.8,55.83 -33.88,56.95C-43.06,61.95 -53.6,64.79 -64.79,64.79C-75.98,64.79 -86.52,61.95 -95.7,56.95C-97.78,55.83 -99.78,54.59 -101.71,53.25C-106.85,49.68 -111.44,45.4 -115.33,40.53C-124.26,29.43 -129.59,15.33 -129.59,-0.01C-129.59,-35.79 -100.58,-64.8 -64.79,-64.8C-29.01,-64.8 0,-35.79 0,-0.01" style="fill:rgb(215,234,241);fill-rule:nonzero;"/>
            </g>
            <g transform="matrix(1,0,0,1,452.37,443.93)">
                <path d="M0,-2.2C-3.9,2.67 -8.49,6.95 -13.62,10.51C-15.55,11.86 -17.55,13.1 -19.63,14.22C-28.81,19.22 -39.35,22.06 -50.54,22.06C-61.73,22.06 -72.27,19.22 -81.45,14.22C-83.53,13.1 -85.53,11.86 -87.46,10.52C-92.6,6.95 -97.19,2.67 -101.08,-2.2C-99.41,-8.1 -94.77,-12.77 -88.76,-14.43L-73.23,-18.72L-67.62,-20.27L-62.79,-21.61L-62.32,-24.26L-38.76,-24.26L-38.29,-21.61L-33.46,-20.27L-27.85,-18.72L-12.32,-14.43C-6.31,-12.77 -1.67,-8.1 0,-2.2" style="fill:rgb(29,172,172);fill-rule:nonzero;"/>
            </g>
            <g transform="matrix(1,0,0,1,413.607,447.86)">
                <path d="M0,-28.193L-23.554,-28.193L-24.027,-25.54L-28.857,-24.2C-26.057,-8.45 -14.767,-1.74 -14.287,-1.45L-11.767,0L-9.257,-1.46C-8.777,-1.74 2.523,-8.49 5.303,-24.2L0.473,-25.54L0,-28.193Z" style="fill:rgb(0,114,137);fill-rule:nonzero;"/>
            </g>
            <g transform="matrix(1,0,0,1,414.08,424.08)">
                <path d="M0,-1.76C-0.06,-1.38 -0.13,-1.01 -0.2,-0.65C-2.79,12.36 -12.07,17.89 -12.25,18C-12.44,17.89 -22.24,12.05 -24.5,-1.76L-23.3,-8.48L-21.29,-19.76L-12.25,-16.22L-3.21,-19.76L0,-1.76Z" style="fill:rgb(246,151,121);fill-rule:nonzero;"/>
            </g>
            <g transform="matrix(1,0,0,1,414.08,407.04)">
                <path d="M0,15.28C-0.06,15.66 -0.13,16.03 -0.2,16.39C-4.02,18 -7.19,18 -7.19,18C-7.19,18 -17.52,18 -23.3,8.56L-21.29,-2.72L-12.25,0.82L-3.21,-2.72L0,15.28Z" style="fill:rgb(243,122,103);fill-rule:nonzero;"/>
            </g>
            <g transform="matrix(1,0,0,1,427.673,395.396)">
                <path d="M0,-31.485C-3.327,-38.255 -25.848,-38.477 -25.848,-38.477C-25.848,-38.477 -48.368,-38.255 -51.695,-31.485C-58.127,-15.4 -44.063,2.303 -44.063,2.303L-25.848,6.992L-7.632,2.303C-7.632,2.303 6.432,-15.4 0,-31.485" style="fill:rgb(228,68,36);fill-rule:nonzero;"/>
            </g>
            <g transform="matrix(1,0,0,1,393.059,350.125)">
                <path d="M0,19.879C0,19.879 -17.291,18.35 -16.35,10.939C-16.115,8.587 -11.645,8.587 -11.645,8.587C-11.645,8.587 -15.056,7.411 -13.997,5.058C-12.939,2.706 -8.309,3.176 -8.309,3.176C-8.309,3.176 -12.468,0.706 -10.586,-1.529C-8.704,-3.764 3.764,-1.529 3.764,-1.529C3.764,-1.529 21.879,-3.411 31.171,6.234C36.346,10.822 29.995,23.643 29.995,23.643L0,19.879Z" style="fill:rgb(228,68,36);fill-rule:nonzero;"/>
            </g>
            <g transform="matrix(1,0,0,1,426.258,390.556)">
                <path d="M0,-5.781C-0.121,-6.579 -0.417,-7.389 -1.026,-7.918C-1.575,-8.396 -2.331,-8.593 -3.058,-8.562C-3.785,-8.531 -4.489,-8.288 -5.144,-7.971C-5.144,-7.971 -5.208,-26.406 -11.743,-26.62C-16.029,-26.835 -17.935,-25.549 -24.428,-25.549C-30.92,-25.549 -32.827,-26.835 -37.112,-26.62C-43.647,-26.406 -43.711,-7.971 -43.711,-7.971C-44.366,-8.288 -45.07,-8.531 -45.797,-8.562C-46.525,-8.593 -47.28,-8.396 -47.829,-7.918C-48.439,-7.389 -48.734,-6.579 -48.855,-5.781C-49.099,-4.179 -48.716,-2.491 -47.805,-1.152C-46.893,0.188 -45.548,1.195 -43.969,1.556C-41.183,21.054 -24.428,21.054 -24.428,21.054C-24.428,21.054 -7.672,21.054 -4.887,1.556C-3.308,1.195 -1.962,0.188 -1.051,-1.152C-0.139,-2.491 0.244,-4.179 0,-5.781" style="fill:rgb(246,151,121);fill-rule:nonzero;"/>
            </g>
            <g transform="matrix(0,1,1,0,399.084,410.291)">
                <path d="M-1.314,-2.314L2.315,-2.314C2.96,-2.314 2.96,-1.314 2.315,-1.314L-1.314,-1.314C-1.959,-1.314 -1.959,-2.314 -1.314,-2.314" style="fill:rgb(228,68,36);fill-rule:nonzero;"/>
            </g>
            <g transform="matrix(-0.950629,0.310329,0.310329,0.950629,400.693,412.892)">
                <path d="M0.593,-3.723C0.909,-2.554 1.227,-1.385 1.543,-0.215C1.711,0.405 0.761,0.718 0.593,0.095C0.276,-1.074 -0.041,-2.243 -0.358,-3.413C-0.526,-4.034 0.424,-4.347 0.593,-3.723" style="fill:rgb(228,68,36);fill-rule:nonzero;"/>
            </g>
            <g transform="matrix(0,1,1,0,408.205,410.291)">
                <path d="M-1.314,-2.314L2.315,-2.314C2.96,-2.314 2.96,-1.314 2.315,-1.314L-1.314,-1.314C-1.959,-1.314 -1.959,-2.314 -1.314,-2.314" style="fill:rgb(228,68,36);fill-rule:nonzero;"/>
            </g>
            <g transform="matrix(-0.97571,0.219064,0.219064,0.97571,404.889,413.032)">
                <path d="M0.408,-3.674C0.733,-2.507 1.058,-1.34 1.383,-0.173C1.557,0.448 0.58,0.664 0.408,0.046C0.082,-1.121 -0.243,-2.288 -0.568,-3.455C-0.742,-4.077 0.235,-4.293 0.408,-3.674" style="fill:rgb(228,68,36);fill-rule:nonzero;"/>
            </g>
            <g transform="matrix(0,1,1,0,403.738,411.315)">
                <path d="M-1.408,-2.408L2.408,-2.408C3.053,-2.408 3.053,-1.408 2.408,-1.408L-1.408,-1.408C-2.053,-1.408 -2.053,-2.408 -1.408,-2.408" style="fill:rgb(228,68,36);fill-rule:nonzero;"/>
            </g>
            <g transform="matrix(1,0,0,1,438.75,440.71)">
                <path d="M0,13.73C-1.93,15.08 -3.93,16.32 -6.01,17.44L-2.13,-3.71L0,13.73Z" style="fill:rgb(0,114,137);fill-rule:nonzero;"/>
            </g>
            <g transform="matrix(1,0,0,1,370.92,437)">
                <path d="M0,21.15C-2.08,20.03 -4.08,18.79 -6.01,17.45L-3.88,0L0,21.15Z" style="fill:rgb(0,114,137);fill-rule:nonzero;"/>
            </g>
            <g transform="matrix(1,0,0,1,400.891,393.876)">
                <path d="M0,-11.441L0,0L1.939,0C5.263,0 0.617,-10.126 0,-11.441" style="fill:rgb(243,122,103);fill-rule:nonzero;"/>
            </g>
            <g transform="matrix(-0.18836,-0.9821,-0.9821,0.18836,409.569,374.275)">
                <path d="M-4.657,-4.624C-2.852,-2.241 -2.098,0.647 -2.663,3.599C-2.903,4.85 -4.9,4.709 -4.657,3.44C-4.195,1.022 -4.665,-1.33 -6.164,-3.308C-6.939,-4.332 -5.436,-5.652 -4.657,-4.624" style="fill:rgb(228,68,36);fill-rule:nonzero;"/>
            </g>
            <g transform="matrix(0,-1,-1,0,410.689,380.549)">
                <path d="M-1.886,-1.886C-2.928,-1.886 -3.772,-1.042 -3.772,0C-3.772,1.042 -2.928,1.886 -1.886,1.886C-0.844,1.886 0,1.042 0,0C0,-1.042 -0.844,-1.886 -1.886,-1.886" style="fill:rgb(5,23,51);fill-rule:nonzero;"/>
            </g>
            <g transform="matrix(-0.18836,0.9821,0.9821,0.18836,394.091,374.275)">
                <path d="M4.657,-4.624C2.852,-2.241 2.098,0.647 2.663,3.599C2.903,4.85 4.9,4.709 4.657,3.44C4.195,1.022 4.665,-1.33 6.164,-3.308C6.939,-4.332 5.436,-5.652 4.657,-4.624" style="fill:rgb(228,68,36);fill-rule:nonzero;"/>
            </g>
            <g transform="matrix(0,1,1,0,392.971,380.549)">
                <path d="M1.886,-1.886C2.928,-1.886 3.772,-1.042 3.772,0C3.772,1.042 2.928,1.886 1.886,1.886C0.844,1.886 -0,1.042 -0,0C-0,-1.042 0.844,-1.886 1.886,-1.886" style="fill:rgb(5,23,51);fill-rule:nonzero;"/>
            </g>
            <g transform="matrix(1,0,0,1,395.685,402.675)">
                <path d="M0,-4.33C0.665,-1.848 3.16,0 6.146,0C9.131,0 11.626,-1.848 12.291,-4.33L0,-4.33Z" style="fill:white;fill-rule:nonzero;"/>
            </g>
        </g>
    </g>
</svg>
