<?xml version="1.0" encoding="UTF-8" standalone="no"?>
<!DOCTYPE svg PUBLIC "-//W3C//DTD SVG 1.1//EN" "http://www.w3.org/Graphics/SVG/1.1/DTD/svg11.dtd">
<svg width="100%" height="100%" viewBox="0 0 130 130" version="1.1" xmlns="http://www.w3.org/2000/svg" xmlns:xlink="http://www.w3.org/1999/xlink" xml:space="preserve" xmlns:serif="http://www.serif.com/" style="fill-rule:evenodd;clip-rule:evenodd;stroke-linejoin:round;stroke-miterlimit:2;">
    <g transform="matrix(1,0,0,1,-185.2,-34.01)">
        <g transform="matrix(1,0,0,1,87.0889,64.5554)">
            <g id="BACKGROUND">
                <rect x="0" y="0" width="500" height="500" style="fill:white;"/>
            </g>
        </g>
        <g id="OBJECT">
            <g transform="matrix(1,0,0,1,314.8,98.8)">
                <path d="M0,0.01C0,18.34 -7.62,34.9 -19.86,46.68C-22.28,49.02 -24.88,51.16 -27.64,53.09C-29.22,54.21 -30.86,55.25 -32.54,56.22C-41.9,61.6 -52.74,64.71 -64.3,64.79C-64.47,64.8 -64.63,64.8 -64.8,64.8C-64.97,64.8 -65.13,64.8 -65.3,64.79C-75.99,64.72 -86.07,62.05 -94.93,57.38C-96.84,56.38 -98.69,55.29 -100.48,54.09C-103.8,51.91 -106.89,49.43 -109.74,46.68C-121.98,34.9 -129.6,18.34 -129.6,0.01C-129.6,-35.78 -100.59,-64.79 -64.8,-64.79C-29.01,-64.79 0,-35.78 0,0.01" style="fill:rgb(215,234,241);fill-rule:nonzero;"/>
            </g>
            <g transform="matrix(1,0,0,1,286.111,71.1928)">
                <path d="M0,34.135C-0.909,32.242 -2.341,30.568 -2.81,28.521C-3.247,26.611 -2.787,24.626 -2.405,22.705C-1.571,18.517 -1.132,14.017 -2.844,10.104C-4.697,5.872 -8.777,2.988 -10.911,-1.109C-13.24,-5.583 -13.075,-11.168 -15.99,-15.284C-18.876,-19.358 -24.126,-21.024 -29.091,-21.557C-30.025,-21.657 -31.021,-21.612 -32.005,-21.439C-34.715,-20.962 -37.507,-20.962 -40.217,-21.439C-41.201,-21.612 -42.197,-21.657 -43.131,-21.557C-48.095,-21.024 -53.345,-19.358 -56.232,-15.284C-59.147,-11.168 -58.982,-5.583 -61.311,-1.109C-63.445,2.988 -67.525,5.872 -69.377,10.104C-71.09,14.017 -70.651,18.517 -69.817,22.705C-69.434,24.626 -68.975,26.611 -69.412,28.521C-69.881,30.568 -71.313,32.242 -72.222,34.135C-74.253,38.365 -73.565,44.001 -70.247,47.319C-61.774,55.792 -36.111,49.942 -36.111,49.942C-36.111,49.942 -10.448,55.792 -1.975,47.319C1.343,44.001 2.031,38.365 0,34.135" style="fill:rgb(5,23,51);fill-rule:nonzero;"/>
            </g>
            <g transform="matrix(1,0,0,1,294.94,120.44)">
                <path d="M0,25.04C-2.42,27.38 -5.02,29.52 -7.78,31.45C-9.36,32.57 -11,33.61 -12.68,34.58C-22.04,39.96 -32.88,43.07 -44.44,43.15C-44.61,43.16 -44.77,43.16 -44.94,43.16C-45.11,43.16 -45.27,43.16 -45.44,43.15C-56.13,43.08 -66.21,40.41 -75.07,35.74C-76.98,34.74 -78.83,33.65 -80.62,32.45C-83.94,30.27 -87.03,27.79 -89.88,25.04C-86.59,20.18 -81.87,16.39 -76.3,14.25L-70.33,11.95C-68.12,11.1 -66.07,9.96 -64.22,8.58L-64.21,8.57C-61.94,6.89 -59.98,4.85 -58.39,2.53C-57.88,1.8 -57.42,1.04 -56.99,0.26C-56.84,-0.01 -56.7,-0.29 -56.56,-0.57C-56.45,-0.78 -56.35,-0.99 -56.26,-1.2C-56.17,-1.38 -56.09,-1.56 -56.01,-1.75C-55.8,-2.21 -55.61,-2.68 -55.44,-3.16C-55.31,-3.5 -55.19,-3.85 -55.08,-4.2C-54.89,-4.79 -54.72,-5.38 -54.58,-5.98C-54.51,-6.26 -54.44,-6.54 -54.39,-6.82L-54.04,-8.52L-53.11,-12.98L-52.05,-18.12L-37.83,-18.12L-36.77,-12.98L-35.49,-6.82C-35.41,-6.43 -35.32,-6.05 -35.22,-5.67C-35.1,-5.17 -34.95,-4.68 -34.8,-4.2C-34.61,-3.6 -34.4,-3.01 -34.16,-2.43C-34.07,-2.18 -33.96,-1.94 -33.85,-1.69C-33.6,-1.12 -33.34,-0.57 -33.05,-0.02C-32.88,0.29 -32.71,0.59 -32.54,0.89C-32.21,1.45 -31.86,2 -31.49,2.53C-29.9,4.85 -27.94,6.89 -25.67,8.57C-23.82,9.96 -21.76,11.09 -19.55,11.95L-13.58,14.25C-8.01,16.39 -3.29,20.18 0,25.04" style="fill:rgb(227,0,129);fill-rule:nonzero;"/>
            </g>
            <g transform="matrix(1,0,0,1,250.5,163.04)">
                <path d="M0,-22.04L0,0.55C-0.17,0.56 -0.33,0.56 -0.5,0.56C-0.67,0.56 -0.83,0.56 -1,0.55L-1,-22.04C-1,-22.13 -0.98,-22.22 -0.95,-22.29L-0.95,-22.3C-0.86,-22.48 -0.7,-22.6 -0.5,-22.6C-0.3,-22.6 -0.14,-22.48 -0.05,-22.3L-0.05,-22.29C-0.02,-22.22 0,-22.13 0,-22.04" style="fill:rgb(168,0,96);fill-rule:nonzero;"/>
            </g>
            <g transform="matrix(1,0,0,1,262.4,125.49)">
                <path d="M0,-4.16C-9.79,4.4 -12.4,19.01 -12.4,19.01C-12.4,19.01 -13.29,7.68 -24.45,-4.79C-23.25,-6.98 -22.37,-9.36 -21.85,-11.87L-21.5,-13.57L-19.51,-23.17L-5.29,-23.17L-2.95,-11.87C-2.45,-9.47 -1.62,-7.18 -0.51,-5.07C-0.34,-4.76 -0.17,-4.46 0,-4.16" style="fill:rgb(246,151,121);fill-rule:nonzero;"/>
            </g>
            <g transform="matrix(1,0,0,1,261.89,103.18)">
                <path d="M0,17.24C-2.83,18.1 -4.92,18.1 -4.92,18.1C-4.92,18.1 -15.19,18.1 -20.99,8.74L-19,-0.86L-4.78,-0.86L-2.44,10.44C-1.94,12.84 -1.11,15.13 0,17.24" style="fill:rgb(243,122,103);fill-rule:nonzero;"/>
            </g>
            <g transform="matrix(1,0,0,1,274.428,88.5558)">
                <path d="M0,-5.781C-0.122,-6.579 -0.417,-7.389 -1.026,-7.919C-1.575,-8.396 -2.331,-8.593 -3.058,-8.562C-3.785,-8.531 -4.489,-8.288 -5.144,-7.971C-5.144,-7.971 -5.208,-26.406 -11.743,-26.62C-16.029,-26.835 -17.935,-25.549 -24.428,-25.549C-30.92,-25.549 -32.827,-26.835 -37.112,-26.62C-43.647,-26.406 -43.711,-7.971 -43.711,-7.971C-44.366,-8.288 -45.07,-8.531 -45.797,-8.562C-46.525,-8.593 -47.28,-8.396 -47.829,-7.919C-48.439,-7.389 -48.734,-6.579 -48.855,-5.781C-49.099,-4.179 -48.716,-2.491 -47.805,-1.152C-46.893,0.187 -45.548,1.195 -43.969,1.556C-41.183,21.054 -24.428,21.054 -24.428,21.054C-24.428,21.054 -7.672,21.054 -4.887,1.556C-3.308,1.195 -1.962,0.187 -1.051,-1.152C-0.139,-2.491 0.244,-4.179 0,-5.781" style="fill:rgb(246,151,121);fill-rule:nonzero;"/>
            </g>
            <g transform="matrix(0.894368,0.447331,0.447331,-0.894368,260.5,124.764)">
                <path d="M1.716,-1.325L11.905,-1.325L-0.766,7.178C-0.766,7.178 -2.286,8.412 -4.576,7.266L1.716,-1.325Z" style="fill:rgb(255,84,182);fill-rule:nonzero;"/>
            </g>
            <g transform="matrix(1,0,0,1,250,116.218)">
                <path d="M0,28.282C0,28.282 4.716,15.883 11.441,10.499L9.658,0C9.658,0 0.5,17.282 0,28.282" style="fill:rgb(168,0,96);fill-rule:nonzero;"/>
            </g>
            <g transform="matrix(-0.894368,0.447331,0.447331,0.894368,230.288,122.729)">
                <path d="M-5.613,7.266L4.576,7.266L-8.095,-1.237C-8.095,-1.237 -9.615,-2.471 -11.905,-1.325L-5.613,7.266Z" style="fill:rgb(255,84,182);fill-rule:nonzero;"/>
            </g>
            <g transform="matrix(1,0,0,1,250,116.218)">
                <path d="M0,28.282C0,28.282 -4.716,15.883 -11.441,10.499L-9.658,0C-9.658,0 -0.5,17.282 0,28.282" style="fill:rgb(168,0,96);fill-rule:nonzero;"/>
            </g>
            <g transform="matrix(1,0,0,1,287.16,148.67)">
                <path d="M0,3.22C-1.58,4.34 -3.22,5.38 -4.9,6.35L-1.51,-3.13L0,3.22Z" style="fill:rgb(168,0,96);fill-rule:nonzero;"/>
            </g>
            <g transform="matrix(1,0,0,1,219.87,145.54)">
                <path d="M0,10.64C-1.91,9.64 -3.76,8.55 -5.55,7.35L-3.8,0L0,10.64Z" style="fill:rgb(168,0,96);fill-rule:nonzero;"/>
            </g>
            <g transform="matrix(1,0,0,1,249.061,91.0673)">
                <path d="M0,-11.441L0,0L1.939,0C5.263,0 0.617,-10.126 0,-11.441" style="fill:rgb(243,122,103);fill-rule:nonzero;"/>
            </g>
            <g transform="matrix(-0.18836,-0.9821,-0.9821,0.18836,257.739,71.4657)">
                <path d="M-4.657,-4.624C-2.852,-2.241 -2.098,0.646 -2.663,3.599C-2.903,4.85 -4.9,4.709 -4.657,3.44C-4.195,1.022 -4.665,-1.33 -6.164,-3.308C-6.939,-4.332 -5.436,-5.652 -4.657,-4.624" style="fill:rgb(5,23,51);fill-rule:nonzero;"/>
            </g>
            <g transform="matrix(1,0,0,1,260.745,80.4562)">
                <path d="M0,-1.724C-0.609,-2.78 -1.886,-2.716 -1.886,-2.716C-2.928,-2.716 -3.772,-1.872 -3.772,-0.83C-3.772,0.212 -2.928,1.056 -1.886,1.056C-1.656,1.056 -1.439,1.009 -1.235,0.934L-1.234,0.939C-1.222,0.935 -1.213,0.928 -1.201,0.923C-1.14,0.9 -1.083,0.869 -1.026,0.839C0.624,0.124 0.799,-1.707 0.799,-1.707C0.47,-1.43 0,-1.724 0,-1.724" style="fill:rgb(5,23,51);fill-rule:nonzero;"/>
            </g>
            <g transform="matrix(-0.18836,0.9821,0.9821,0.18836,242.261,71.4657)">
                <path d="M4.657,-4.624C2.852,-2.241 2.098,0.647 2.663,3.599C2.903,4.85 4.9,4.709 4.657,3.44C4.195,1.022 4.665,-1.33 6.164,-3.308C6.939,-4.332 5.436,-5.652 4.657,-4.624" style="fill:rgb(5,23,51);fill-rule:nonzero;"/>
            </g>
            <g transform="matrix(1,0,0,1,239.254,80.4562)">
                <path d="M0,-1.724C0.609,-2.78 1.886,-2.716 1.886,-2.716C2.928,-2.716 3.772,-1.872 3.772,-0.83C3.772,0.212 2.928,1.056 1.886,1.056C1.656,1.056 1.439,1.009 1.235,0.934L1.234,0.939C1.222,0.935 1.213,0.928 1.201,0.923C1.14,0.9 1.083,0.869 1.026,0.839C-0.624,0.124 -0.799,-1.707 -0.799,-1.707C-0.47,-1.43 0,-1.724 0,-1.724" style="fill:rgb(5,23,51);fill-rule:nonzero;"/>
            </g>
            <g transform="matrix(1,0,0,1,243.855,101.484)">
                <path d="M0,-4.33C0.665,-1.848 3.16,0 6.146,0C9.131,0 11.626,-1.848 12.291,-4.33L0,-4.33Z" style="fill:white;fill-rule:nonzero;"/>
            </g>
        </g>
    </g>
</svg>
