<?xml version="1.0" encoding="UTF-8" standalone="no"?>
<!DOCTYPE svg PUBLIC "-//W3C//DTD SVG 1.1//EN" "http://www.w3.org/Graphics/SVG/1.1/DTD/svg11.dtd">
<svg width="100%" height="100%" viewBox="0 0 130 130" version="1.1" xmlns="http://www.w3.org/2000/svg" xmlns:xlink="http://www.w3.org/1999/xlink" xml:space="preserve" xmlns:serif="http://www.serif.com/" style="fill-rule:evenodd;clip-rule:evenodd;stroke-linejoin:round;stroke-miterlimit:2;">
    <g transform="matrix(1,0,0,1,-33.38,-34.01)">
        <g transform="matrix(1,0,0,1,87.0889,64.5554)">
            <g id="BACKGROUND">
                <rect x="0" y="0" width="500" height="500" style="fill:white;"/>
            </g>
        </g>
        <g id="OBJECT">
            <g transform="matrix(1,0,0,1,162.97,98.8)">
                <path d="M0,0.01C0,15.76 -5.62,30.2 -14.97,41.42C-19.08,46.36 -23.91,50.69 -29.31,54.22C-30.71,55.14 -32.15,56.01 -33.63,56.82C-42.88,61.91 -53.5,64.8 -64.8,64.8C-76.87,64.8 -88.17,61.5 -97.84,55.75C-99.21,54.94 -100.54,54.08 -101.84,53.17C-107.15,49.47 -111.87,44.99 -115.85,39.9C-124.46,28.9 -129.59,15.06 -129.59,0.01C-129.59,-35.78 -100.58,-64.79 -64.8,-64.79C-29.01,-64.79 0,-35.78 0,0.01" style="fill:rgb(215,234,241);fill-rule:nonzero;"/>
            </g>
            <g transform="matrix(1,0,0,1,148,125.7)">
                <path d="M0,14.52C-4.11,19.46 -8.94,23.79 -14.34,27.32C-15.74,28.24 -17.18,29.11 -18.66,29.92C-27.91,35.01 -38.53,37.9 -49.83,37.9C-61.9,37.9 -73.2,34.6 -82.87,28.85C-84.24,28.04 -85.57,27.18 -86.87,26.27C-92.18,22.57 -96.9,18.09 -100.88,13C-98.98,7.59 -94.54,3.36 -88.89,1.8L-73.36,-2.49L-67.87,-4.01L-62.92,-5.38L-61.24,-14.78L-60.47,-19.15L-59.71,-23.38L-50.67,-19.84L-41.63,-23.38L-40.87,-19.15L-39.04,-8.88L-38.42,-5.38L-33.47,-4.01L-27.98,-2.49L-12.45,1.8C-6.28,3.5 -1.55,8.39 0,14.52" style="fill:rgb(255,163,59);fill-rule:nonzero;"/>
            </g>
            <g transform="matrix(1,0,0,1,114.53,126.8)">
                <path d="M0,-5.11L-0.16,-4.81C-2.81,9.7 -13.73,18.01 -14.21,18.37C-15.09,19.04 -16.15,19.37 -17.2,19.37C-18.25,19.37 -19.31,19.04 -20.19,18.37C-20.67,18.01 -31.59,9.7 -34.24,-4.81L-34.4,-5.11L-29.45,-6.48L-26.24,-24.48L-17.2,-20.94L-8.16,-24.48L-4.95,-6.48L0,-5.11Z" style="fill:rgb(255,134,59);fill-rule:nonzero;"/>
            </g>
            <g transform="matrix(1,0,0,1,109.58,123.16)">
                <path d="M0,-2.84C-2.06,10.38 -12.25,18 -12.25,18C-12.25,18 -22.44,10.38 -24.5,-2.84L-22.82,-12.24L-21.29,-20.84L-12.25,-17.3L-3.21,-20.84L-0.62,-6.34L0,-2.84Z" style="fill:rgb(134,32,27);fill-rule:nonzero;"/>
            </g>
            <g transform="matrix(1,0,0,1,108.96,104.07)">
                <path d="M0,12.75C-3.96,14.5 -7.32,14.5 -7.32,14.5C-7.32,14.5 -16.3,14.5 -22.2,6.85L-20.67,-1.75L-11.63,1.79L-2.59,-1.75L0,12.75Z" style="fill:rgb(97,23,20);fill-rule:nonzero;"/>
            </g>
            <g transform="matrix(1,0,0,1,124.002,70.3513)">
                <path d="M0,6.569C0.472,6.342 0.808,5.855 0.855,5.334C0.902,4.812 0.639,4.049 0.215,3.741C0.507,3.343 0.586,2.799 0.42,2.335C0.254,1.871 -0.115,1.138 -0.592,1.015C0.068,0.062 0.016,-1.199 -0.935,-1.862C-0.312,-2.766 -0.325,-4.486 -1.267,-5.049C-0.944,-5.543 -0.897,-6.204 -1.145,-6.738C-1.394,-7.273 -1.985,-7.819 -2.57,-7.891C-2.407,-8.478 -2.393,-9.105 -2.528,-9.699C-2.608,-10.047 -2.746,-10.396 -3.007,-10.639C-3.268,-10.883 -3.867,-11.184 -4.187,-11.026C-4.233,-11.584 -4.288,-12.167 -4.591,-12.638C-4.894,-13.109 -5.644,-13.556 -6.144,-13.304C-6.041,-13.938 -6.316,-14.619 -6.83,-15.005C-7.344,-15.391 -8.332,-15.437 -8.912,-15.161C-9.079,-15.739 -9.326,-16.315 -9.761,-16.731C-10.196,-17.148 -10.852,-17.417 -11.42,-17.217C-11.44,-18.16 -12.335,-18.992 -13.277,-18.945C-13.475,-18.935 -13.707,-18.931 -13.606,-18.76C-13.662,-19.437 -14.303,-19.948 -14.969,-20.08C-15.635,-20.212 -16.422,-19.911 -17.08,-19.743C-17.32,-20.347 -17.894,-20.804 -18.536,-20.904C-19.178,-21.003 -20.019,-20.894 -20.43,-20.391C-21.209,-21.379 -23.141,-21.543 -24.238,-20.927C-24.555,-21.854 -25.693,-22.092 -26.672,-22.092C-27.652,-22.092 -28.789,-21.854 -29.107,-20.927C-30.204,-21.543 -32.136,-21.379 -32.914,-20.391C-33.326,-20.894 -34.167,-21.003 -34.809,-20.904C-35.45,-20.804 -36.024,-20.347 -36.265,-19.743C-36.923,-19.911 -37.71,-20.212 -38.376,-20.08C-39.042,-19.948 -39.683,-19.437 -39.739,-18.76C-39.638,-18.931 -39.87,-18.935 -40.068,-18.945C-41.009,-18.992 -41.904,-18.16 -41.924,-17.217C-42.492,-17.417 -43.149,-17.148 -43.584,-16.731C-44.018,-16.315 -44.266,-15.739 -44.432,-15.161C-45.013,-15.437 -46,-15.391 -46.514,-15.005C-47.029,-14.619 -47.303,-13.938 -47.201,-13.304C-47.701,-13.556 -48.451,-13.109 -48.754,-12.638C-49.057,-12.167 -49.111,-11.584 -49.158,-11.026C-49.478,-11.184 -50.077,-10.883 -50.338,-10.639C-50.599,-10.396 -50.737,-10.047 -50.816,-9.699C-50.952,-9.105 -50.937,-8.478 -50.775,-7.891C-51.36,-7.819 -51.951,-7.273 -52.199,-6.738C-52.448,-6.204 -52.4,-5.543 -52.078,-5.049C-53.02,-4.486 -53.033,-2.766 -52.41,-1.862C-53.361,-1.199 -53.413,0.062 -52.752,1.015C-53.229,1.138 -53.598,1.871 -53.764,2.335C-53.93,2.799 -53.851,3.343 -53.56,3.741C-53.984,4.049 -54.247,4.812 -54.2,5.334C-54.153,5.855 -53.816,6.342 -53.344,6.569C-54.137,7.38 -53.848,9.171 -52.863,9.733C-53.059,9.924 -53.168,10.443 -53.281,10.691C-53.359,10.862 -53.392,11.049 -53.425,11.234C-53.496,11.639 -53.566,12.064 -53.441,12.457C-53.317,12.849 -52.929,13.191 -52.524,13.117C-53.196,13.913 -52.874,15.803 -52.041,16.429C-52.323,17.084 -51.734,18.283 -51.222,18.779C-50.709,19.275 -49.883,19.412 -49.237,19.109C-49.382,19.673 -49.346,20.355 -49.196,20.918C-49.045,21.48 -48.516,21.984 -47.94,21.904C-48.022,22.434 -47.812,23.073 -47.539,23.535C-47.265,23.997 -46.645,24.285 -46.167,24.04C-46.372,24.532 -46.146,25.308 -45.842,25.745C-45.537,26.183 -45.001,26.449 -44.468,26.427C-44.523,27.229 -43.919,28.142 -43.165,28.422C-42.522,28.661 -41.808,28.533 -41.134,28.401C-40.722,28.321 -40.31,28.241 -39.898,28.161L-26.672,26.561L-13.446,28.161C-13.034,28.241 -12.622,28.321 -12.21,28.401C-11.537,28.533 -10.823,28.661 -10.179,28.422C-9.426,28.142 -8.821,27.229 -8.876,26.427C-8.344,26.449 -7.808,26.183 -7.503,25.745C-7.198,25.308 -6.972,24.532 -7.178,24.04C-6.7,24.285 -6.079,23.997 -5.806,23.535C-5.533,23.073 -5.322,22.434 -5.405,21.904C-4.828,21.984 -4.3,21.48 -4.149,20.918C-3.998,20.355 -3.962,19.673 -4.107,19.109C-3.462,19.412 -2.635,19.275 -2.123,18.779C-1.61,18.283 -1.022,17.084 -1.303,16.429C-0.47,15.803 -0.149,13.913 -0.821,13.117C-0.416,13.191 -0.028,12.849 0.097,12.457C0.222,12.064 0.151,11.639 0.08,11.234C0.048,11.049 0.015,10.862 -0.063,10.691C-0.176,10.443 -0.286,9.924 -0.481,9.733C0.504,9.171 0.792,7.38 0,6.569" style="fill:rgb(5,23,51);fill-rule:nonzero;"/>
            </g>
            <g transform="matrix(1,0,0,1,121.758,88.5558)">
                <path d="M0,-5.781C-0.122,-6.579 -0.417,-7.389 -1.026,-7.919C-1.575,-8.396 -2.331,-8.593 -3.058,-8.562C-3.785,-8.531 -4.489,-8.288 -5.144,-7.971C-5.144,-7.971 -5.208,-26.406 -11.743,-26.62C-16.029,-26.835 -17.935,-25.549 -24.428,-25.549C-30.92,-25.549 -32.827,-26.835 -37.112,-26.62C-43.647,-26.406 -43.711,-7.971 -43.711,-7.971C-44.366,-8.288 -45.07,-8.531 -45.797,-8.562C-46.525,-8.593 -47.28,-8.396 -47.829,-7.919C-48.439,-7.389 -48.734,-6.579 -48.855,-5.781C-49.099,-4.179 -48.716,-2.491 -47.805,-1.152C-46.893,0.187 -45.548,1.195 -43.969,1.556C-41.183,21.054 -24.428,21.054 -24.428,21.054C-24.428,21.054 -7.672,21.054 -4.887,1.556C-3.308,1.195 -1.962,0.187 -1.051,-1.152C-0.14,-2.491 0.244,-4.179 0,-5.781" style="fill:rgb(134,32,27);fill-rule:nonzero;"/>
            </g>
            <g transform="matrix(1,0,0,1,93.02,81.61)">
                <path d="M0,2.92C0,3.84 -0.76,4.6 -1.69,4.6L-8.14,4.6C-9.07,4.6 -9.83,3.84 -9.83,2.92C-9.83,2.92 -9.82,-0.05 -9.83,-0.06L-9.83,-0.07C-9.78,-0.97 -9.04,-1.68 -8.14,-1.68L-1.69,-1.68C-0.76,-1.68 0,-0.92 0,0.01L0,2.92ZM1.86,-0.99C1.42,-2.54 -0.01,-3.68 -1.69,-3.68L-8.14,-3.68C-9.62,-3.68 -10.9,-2.8 -11.49,-1.54C-11.71,-1.07 -11.83,-0.54 -11.83,0.01L-11.83,2.92C-11.83,4.95 -10.17,6.6 -8.14,6.6L-1.69,6.6C0.34,6.6 2,4.95 2,2.92L2,0.01C2,-0.34 1.95,-0.67 1.86,-0.99" style="fill:rgb(255,163,59);fill-rule:nonzero;"/>
            </g>
            <g transform="matrix(1,0,0,1,82.1929,78.0533)">
                <path d="M0,4.564C-0.171,4.564 -0.345,4.52 -0.503,4.428L-4.65,2.007C-5.128,1.728 -5.289,1.116 -5.01,0.639C-4.732,0.161 -4.118,0 -3.643,0.279L0.505,2.7C0.982,2.978 1.143,3.591 0.865,4.068C0.679,4.387 0.344,4.564 0,4.564" style="fill:rgb(255,163,59);fill-rule:nonzero;"/>
            </g>
            <g transform="matrix(1,0,0,1,111.47,81.61)">
                <path d="M0,2.92C0,3.84 -0.76,4.6 -1.69,4.6L-8.14,4.6C-9.07,4.6 -9.83,3.84 -9.83,2.92L-9.83,0.01C-9.83,-0.92 -9.07,-1.68 -8.14,-1.68L-1.69,-1.68C-0.79,-1.68 -0.05,-0.97 0,-0.07C0,-0.07 -0.01,-0.05 0,-0.04L0,2.92ZM1.66,-1.54C1.07,-2.8 -0.21,-3.68 -1.69,-3.68L-8.14,-3.68C-9.82,-3.68 -11.25,-2.54 -11.68,-0.99C-11.78,-0.67 -11.83,-0.34 -11.83,0.01L-11.83,2.92C-11.83,4.95 -10.17,6.6 -8.14,6.6L-1.69,6.6C0.34,6.6 2,4.95 2,2.92L2,0.01C2,-0.54 1.88,-1.07 1.66,-1.54" style="fill:rgb(255,163,59);fill-rule:nonzero;"/>
            </g>
            <g transform="matrix(1,0,0,1,112.467,78.0553)">
                <path d="M0,4.562C-0.344,4.562 -0.679,4.385 -0.865,4.066C-1.143,3.589 -0.982,2.976 -0.505,2.698L3.643,0.277C4.119,0 4.732,0.16 5.01,0.637C5.289,1.114 5.127,1.726 4.65,2.005L0.503,4.426C0.345,4.518 0.171,4.562 0,4.562" style="fill:rgb(255,163,59);fill-rule:nonzero;"/>
            </g>
            <g transform="matrix(1,0,0,1,100.643,80.6173)">
                <path d="M0,2L-6.625,2C-7.177,2 -7.625,1.552 -7.625,1C-7.625,0.448 -7.177,0 -6.625,0L0,0C0.552,0 1,0.448 1,1C1,1.552 0.552,2 0,2" style="fill:rgb(255,163,59);fill-rule:nonzero;"/>
            </g>
            <g transform="matrix(1,0,0,1,133.66,143.04)">
                <path d="M0,9.98C-1.4,10.9 -2.84,11.77 -4.32,12.58L-1.54,-2.6L0,9.98Z" style="fill:rgb(255,134,59);fill-rule:nonzero;"/>
            </g>
            <g transform="matrix(1,0,0,1,65.13,140.44)">
                <path d="M0,14.11C-1.37,13.3 -2.7,12.44 -4,11.53L-2.59,0L0,14.11Z" style="fill:rgb(255,134,59);fill-rule:nonzero;"/>
            </g>
            <g transform="matrix(1,0,0,1,96.3908,94.2)">
                <path d="M0,-11.441L0,0L1.939,0C5.263,0 0.617,-10.126 0,-11.441" style="fill:rgb(97,23,20);fill-rule:nonzero;"/>
            </g>
            <g transform="matrix(-0.18836,-0.9821,-0.9821,0.18836,105.069,71.6265)">
                <path d="M-4.657,-4.625C-2.852,-2.242 -2.098,0.646 -2.662,3.599C-2.902,4.849 -4.899,4.708 -4.657,3.44C-4.194,1.021 -4.665,-1.33 -6.163,-3.308C-6.939,-4.333 -5.436,-5.652 -4.657,-4.625" style="fill:rgb(5,23,51);fill-rule:nonzero;"/>
            </g>
            <g transform="matrix(0,-1,-1,0,106.189,80.873)">
                <path d="M-1.886,-1.886C-2.928,-1.886 -3.772,-1.042 -3.772,0C-3.772,1.042 -2.928,1.886 -1.886,1.886C-0.844,1.886 0,1.042 0,0C0,-1.042 -0.844,-1.886 -1.886,-1.886" style="fill:rgb(5,23,51);fill-rule:nonzero;"/>
            </g>
            <g transform="matrix(-0.18836,0.9821,0.9821,0.18836,89.591,71.6265)">
                <path d="M4.657,-4.625C2.852,-2.242 2.098,0.646 2.662,3.599C2.902,4.849 4.899,4.708 4.657,3.44C4.194,1.021 4.665,-1.33 6.163,-3.308C6.939,-4.333 5.436,-5.652 4.657,-4.625" style="fill:rgb(5,23,51);fill-rule:nonzero;"/>
            </g>
            <g transform="matrix(0,1,1,0,88.4705,80.873)">
                <path d="M1.886,-1.886C2.928,-1.886 3.772,-1.042 3.772,0C3.772,1.042 2.928,1.886 1.886,1.886C0.844,1.886 -0,1.042 -0,0C-0,-1.042 0.844,-1.886 1.886,-1.886" style="fill:rgb(5,23,51);fill-rule:nonzero;"/>
            </g>
            <g transform="matrix(1,0,0,1,91.1845,101.072)">
                <path d="M0,-4.33C0.665,-1.848 3.16,0 6.145,0C9.131,0 11.626,-1.848 12.291,-4.33L0,-4.33Z" style="fill:white;fill-rule:nonzero;"/>
            </g>
        </g>
    </g>
</svg>
