<?xml version="1.0" encoding="UTF-8" standalone="no"?>
<!DOCTYPE svg PUBLIC "-//W3C//DTD SVG 1.1//EN" "http://www.w3.org/Graphics/SVG/1.1/DTD/svg11.dtd">
<svg width="100%" height="100%" viewBox="0 0 130 130" version="1.1" xmlns="http://www.w3.org/2000/svg" xmlns:xlink="http://www.w3.org/1999/xlink" xml:space="preserve" xmlns:serif="http://www.serif.com/" style="fill-rule:evenodd;clip-rule:evenodd;stroke-linejoin:round;stroke-miterlimit:2;">
    <g transform="matrix(1,0,0,1,-185.2,-336.4)">
        <g id="BACKGROUND">
        </g>
        <g id="OBJECT">
            <g transform="matrix(1,0,0,1,314.8,401.2)">
                <path d="M0,-0.01C0,14.33 -4.66,27.58 -12.54,38.31C-13.89,40.15 -15.34,41.92 -16.87,43.6C-17.78,44.6 -18.72,45.58 -19.7,46.52C-31.36,57.83 -47.26,64.79 -64.8,64.79C-82.34,64.79 -98.24,57.83 -109.9,46.52C-110.88,45.58 -111.82,44.6 -112.73,43.6C-114.26,41.92 -115.71,40.15 -117.06,38.31C-124.94,27.58 -129.6,14.33 -129.6,-0.01C-129.6,-35.79 -100.59,-64.8 -64.8,-64.8C-29.01,-64.8 0,-35.79 0,-0.01" style="fill:rgb(215,234,241);fill-rule:nonzero;"/>
            </g>
            <g transform="matrix(1,0,0,1,287.108,375.669)">
                <path d="M0,43.796C-1.604,41.375 -3.796,39.158 -4.262,36.292C-4.888,32.44 -2.194,28.834 -1.795,24.952C-1.455,21.649 -2.807,18.398 -4.523,15.556C-6.24,12.714 -8.35,10.102 -9.786,7.109C-12.523,1.407 -11.808,-6.47 -14.391,-12.243C-18.095,-20.519 -28.041,-24.669 -37.108,-24.669C-46.176,-24.669 -56.122,-20.519 -59.825,-12.243C-62.409,-6.47 -61.694,1.407 -64.43,7.109C-65.867,10.102 -67.977,12.714 -69.693,15.556C-71.41,18.398 -72.762,21.649 -72.422,24.952C-72.023,28.834 -69.329,32.44 -69.955,36.292C-70.42,39.158 -72.612,41.375 -74.217,43.796C-76.56,47.331 -77.744,51.659 -77.327,55.88C-76.909,60.1 -74.849,64.173 -71.566,66.859L-37.108,68.465L-2.651,66.859C0.632,64.173 2.692,60.1 3.11,55.88C3.528,51.659 2.343,47.331 0,43.796" style="fill:rgb(5,23,51);fill-rule:nonzero;"/>
            </g>
            <g transform="matrix(1,0,0,1,295.1,422.59)">
                <path d="M0,25.13C-11.66,36.44 -27.56,43.4 -45.1,43.4C-62.64,43.4 -78.54,36.44 -90.2,25.13C-89.24,23.66 -88.13,22.29 -86.92,21.03C-85.5,19.56 -83.92,18.24 -82.22,17.11C-81.33,16.49 -80.4,15.94 -79.43,15.45C-78.47,14.94 -77.48,14.49 -76.46,14.1L-70.49,11.8C-62.33,8.66 -56.33,1.59 -54.55,-6.97L-54.26,-8.35L-53.27,-13.13L-52.21,-18.27L-37.99,-18.27L-36.93,-13.13L-35.65,-6.97C-34.81,-2.94 -33.04,0.77 -30.54,3.89C-27.73,7.38 -24.02,10.14 -19.71,11.8L-13.74,14.1C-12.72,14.49 -11.73,14.94 -10.77,15.45C-9.8,15.94 -8.87,16.49 -7.98,17.11C-6.28,18.24 -4.7,19.56 -3.28,21.03C-2.07,22.29 -0.96,23.66 0,25.13" style="fill:rgb(246,151,121);fill-rule:nonzero;"/>
            </g>
            <g transform="matrix(1,0,0,1,264.56,405.44)">
                <path d="M0,21.04C-3.22,22.16 -5.71,22.16 -5.71,22.16C-5.71,22.16 -18.73,22.16 -23.72,8.8L-21.67,-1.12L-7.45,-1.12L-5.11,10.18C-4.27,14.21 -2.5,17.92 0,21.04" style="fill:rgb(243,122,103);fill-rule:nonzero;"/>
            </g>
            <g transform="matrix(1,0,0,1,302.26,458.85)">
                <path d="M0,-19.34C-1.35,-17.5 -2.8,-15.73 -4.33,-14.05C-5.24,-13.05 -6.18,-12.07 -7.16,-11.13C-18.82,0.18 -34.72,7.14 -52.26,7.14C-69.8,7.14 -85.7,0.18 -97.36,-11.13C-98.34,-12.07 -99.28,-13.05 -100.19,-14.05C-101.72,-15.73 -103.17,-17.5 -104.52,-19.34C-104.5,-19.39 -104.47,-19.44 -104.45,-19.49C-102.09,-24.5 -96.8,-26.48 -92.04,-24.85C-91.65,-24.72 -91.26,-24.56 -90.88,-24.38C-89.17,-23.56 -87.72,-22.32 -86.59,-20.81C-85.71,-19.63 -85.02,-18.3 -84.54,-16.86C-82.03,-18.79 -78.87,-19.54 -75.72,-18.67C-73.79,-18.13 -72.09,-17.04 -70.72,-15.58C-69.86,-14.66 -69.13,-13.59 -68.55,-12.42C-67.33,-13.72 -65.88,-14.71 -64.28,-15.28L-64.27,-15.28C-62.97,-15.75 -61.57,-15.94 -60.13,-15.81C-58.99,-15.71 -57.91,-15.41 -56.9,-14.94L-56.89,-14.93C-55.06,-14.1 -53.47,-12.7 -52.26,-10.94C-51.05,-12.7 -49.46,-14.1 -47.63,-14.93L-47.62,-14.94C-46.61,-15.41 -45.53,-15.71 -44.39,-15.81C-42.95,-15.94 -41.55,-15.75 -40.25,-15.28L-40.24,-15.28C-38.64,-14.71 -37.19,-13.72 -35.97,-12.42C-35.39,-13.59 -34.66,-14.66 -33.8,-15.58C-32.43,-17.04 -30.73,-18.13 -28.8,-18.67C-25.65,-19.54 -22.49,-18.79 -19.98,-16.86C-19.5,-18.3 -18.81,-19.63 -17.93,-20.81C-16.8,-22.32 -15.35,-23.56 -13.64,-24.38C-13.26,-24.56 -12.87,-24.72 -12.48,-24.85C-7.72,-26.48 -2.43,-24.5 -0.07,-19.49C-0.05,-19.44 -0.02,-19.39 0,-19.34" style="fill:rgb(240,56,50);fill-rule:nonzero;"/>
            </g>
            <g transform="matrix(1,0,0,1,297.93,464.53)">
                <path d="M0,-19.73C-0.91,-18.73 -1.85,-17.75 -2.83,-16.81C-14.49,-5.5 -30.39,1.46 -47.93,1.46C-65.47,1.46 -81.37,-5.5 -93.03,-16.81C-94.01,-17.75 -94.95,-18.73 -95.86,-19.73C-94.01,-20.78 -91.87,-21.19 -89.75,-20.91C-88.66,-20.77 -87.59,-20.46 -86.55,-19.96C-83.52,-18.5 -81.31,-15.73 -80.21,-12.45C-77.7,-14.37 -74.54,-15.12 -71.39,-14.25C-68.24,-13.37 -65.72,-11.04 -64.22,-8C-62.01,-10.37 -59.01,-11.69 -55.8,-11.4C-52.59,-11.1 -49.8,-9.26 -47.93,-6.52C-46.06,-9.26 -43.27,-11.1 -40.06,-11.4C-36.85,-11.69 -33.85,-10.37 -31.64,-8C-30.14,-11.04 -27.62,-13.37 -24.47,-14.25C-21.32,-15.12 -18.16,-14.37 -15.65,-12.45C-14.55,-15.73 -12.34,-18.5 -9.31,-19.96C-8.27,-20.46 -7.2,-20.77 -6.11,-20.91C-3.99,-21.19 -1.85,-20.78 0,-19.73" style="fill:rgb(191,45,40);fill-rule:nonzero;"/>
            </g>
            <g transform="matrix(1,0,0,1,268,399.61)">
                <path d="M0,-28.81C-5.6,-37.81 -18,-40.81 -18,-40.81C-18,-40.81 -30.4,-37.81 -36,-28.81C-36,-28.81 -38.68,-20.791 -37.54,-7.5C-34.76,12 -18,12 -18,12C-18,12 -1.24,12 1.54,-7.5C2.68,-20.791 0,-28.81 0,-28.81" style="fill:rgb(246,151,121);fill-rule:nonzero;"/>
            </g>
            <g transform="matrix(1,0,0,1,255.053,390.256)">
                <path d="M0,-31.347C-2.211,-28.088 -6.873,-27.551 -9.722,-24.832C-12.492,-22.188 -13.038,-18.061 -14.107,-14.383C-14.337,-13.59 -14.612,-12.782 -15.161,-12.166C-16.385,-10.79 -18.514,-10.79 -20.158,-9.959C-23.205,-8.419 -23.971,-4.504 -24.482,-1.128C-24.994,2.248 -26.059,6.18 -29.267,7.349C-30.043,-2.776 -29.567,-13.359 -25.008,-22.433C-20.448,-31.507 -11,-38.696 -0.866,-38.048C0.758,-38.088 2.683,-35.644 0,-31.347" style="fill:rgb(5,23,51);fill-rule:nonzero;"/>
            </g>
            <g transform="matrix(1,0,0,1,249.061,393.512)">
                <path d="M0,-11.441L0,0L1.939,0C5.263,0 0.617,-10.126 0,-11.441" style="fill:rgb(243,122,103);fill-rule:nonzero;"/>
            </g>
            <g transform="matrix(-0.18836,-0.9821,-0.9821,0.18836,257.739,373.911)">
                <path d="M-4.657,-4.625C-2.852,-2.242 -2.098,0.646 -2.662,3.599C-2.902,4.849 -4.899,4.708 -4.657,3.44C-4.194,1.021 -4.665,-1.33 -6.163,-3.308C-6.939,-4.333 -5.436,-5.652 -4.657,-4.625" style="fill:rgb(5,23,51);fill-rule:nonzero;"/>
            </g>
            <g transform="matrix(1,0,0,1,260.745,382.901)">
                <path d="M0,-1.724C-0.609,-2.78 -1.886,-2.716 -1.886,-2.716C-2.928,-2.716 -3.772,-1.872 -3.772,-0.83C-3.772,0.212 -2.928,1.056 -1.886,1.056C-1.656,1.056 -1.439,1.009 -1.235,0.934L-1.234,0.939C-1.222,0.935 -1.213,0.928 -1.201,0.923C-1.14,0.9 -1.083,0.869 -1.026,0.84C0.624,0.124 0.799,-1.707 0.799,-1.707C0.47,-1.43 0,-1.724 0,-1.724" style="fill:rgb(5,23,51);fill-rule:nonzero;"/>
            </g>
            <g transform="matrix(-0.18836,0.9821,0.9821,0.18836,242.261,373.911)">
                <path d="M4.657,-4.625C2.852,-2.242 2.098,0.647 2.662,3.599C2.902,4.849 4.899,4.708 4.657,3.44C4.194,1.021 4.665,-1.33 6.163,-3.308C6.939,-4.333 5.436,-5.652 4.657,-4.625" style="fill:rgb(5,23,51);fill-rule:nonzero;"/>
            </g>
            <g transform="matrix(1,0,0,1,239.254,382.901)">
                <path d="M0,-1.724C0.609,-2.78 1.886,-2.716 1.886,-2.716C2.928,-2.716 3.772,-1.872 3.772,-0.83C3.772,0.212 2.928,1.056 1.886,1.056C1.656,1.056 1.439,1.009 1.235,0.934L1.234,0.939C1.222,0.935 1.213,0.928 1.201,0.923C1.14,0.9 1.083,0.869 1.026,0.84C-0.624,0.124 -0.799,-1.707 -0.799,-1.707C-0.47,-1.43 0,-1.724 0,-1.724" style="fill:rgb(5,23,51);fill-rule:nonzero;"/>
            </g>
            <g transform="matrix(1,0,0,1,243.855,403.928)">
                <path d="M0,-4.33C0.665,-1.848 3.16,0 6.146,0C9.131,0 11.626,-1.848 12.291,-4.33L0,-4.33Z" style="fill:white;fill-rule:nonzero;"/>
            </g>
        </g>
    </g>
</svg>
